<svg xmlns="http://www.w3.org/2000/svg" viewBox="0 0 32 32"><title>abc_publishModel</title><g id="Layer_2" data-name="Layer 2"><rect width="32" height="32" rx="6" ry="6" fill="#d8d8d8"/></g><g id="Layer_25" data-name="Layer 25"><polygon points="16.56 19.89 16.56 35.05 29.21 27.47 29.21 13.92 16.56 19.89" fill="#94b500"/><polygon points="2.79 13.92 16.56 19.89 16.56 35.05 2.79 27.67 2.79 13.92" fill="#b8c43f"/><polygon points="16.56 8.77 29.21 13.92 16.56 19.89 2.79 13.92 16.56 8.77" fill="#f0f4a8"/><g id="Arrow_26" data-name="Arrow 26"><rect x="11.95" y="1.55" width="23.39" height="13.44" transform="translate(1.07 19.14) rotate(-45)" fill="none"/><polygon points="19.97 14.61 19.96 9.12 23.61 9.14 16.56 1.33 9.5 9.09 13.15 9.09 13.16 14.58 19.97 14.61" fill="#3d7ca6"/></g><path d="M18,23.23c0-2.93,2.92-4.31,2.92-1.34" fill="none" stroke="#3d7ca6" stroke-linecap="round" stroke-miterlimit="10" stroke-width="0.75"/><path d="M24.83,19.9c0-2.94,2.92-4.32,2.92-1.35" fill="none" stroke="#3d7ca6" stroke-linecap="round" stroke-miterlimit="10" stroke-width="0.75"/><path d="M27.14,21.35c-.94,4.49-6,5.95-7,3.3Z" fill="#3d7ca6" stroke="#3d7ca6" stroke-linecap="round" stroke-linejoin="round"/><polygon points="25.49 21.57 25.49 23.21 22.02 24.9 21.95 23.22 25.49 21.57" fill="#d8d8d8"/><line x1="23.72" y1="22.39" x2="23.72" y2="24.15" fill="none" stroke="#3d7ca6" stroke-miterlimit="10" stroke-width="0.25"/></g></svg>