<svg xmlns="http://www.w3.org/2000/svg" viewBox="0 0 32 32"><title>abc_publishModel</title><g id="Layer_25" data-name="Layer 25"><polygon points="-2.04 23.92 16.63 34.75 33.96 23.89 16.63 14.58 -2.04 23.92" fill="#2d2d2d" opacity="0.5"/><polygon points="16.63 14.58 16.63 31.86 31.06 23.22 31.06 7.76 16.63 14.58" fill="#94b500"/><polygon points="0.94 7.76 16.63 14.58 16.63 31.86 0.94 23.44 0.94 7.76" fill="#b8c43f"/><polygon points="16.63 1.89 31.06 7.76 16.63 14.58 0.94 7.76 16.63 1.89" fill="#f0f4a8"/><g id="Arrow_26" data-name="Arrow 26"><polygon points="13.16 18.2 13.14 11.17 17.81 11.21 8.79 1.22 -0.24 11.13 4.43 11.14 4.45 18.16 13.16 18.2" fill="#3d7ca6"/></g><path d="M18.23,18.38c0-3.34,3.33-4.92,3.33-1.53" fill="none" stroke="#3d7ca6" stroke-linecap="round" stroke-miterlimit="10" stroke-width="0.75"/><path d="M26.07,14.58c0-3.35,3.33-4.92,3.33-1.54" fill="none" stroke="#3d7ca6" stroke-linecap="round" stroke-miterlimit="10" stroke-width="0.75"/><path d="M28.71,16.23c-1.08,5.13-6.81,6.79-8,3.77Z" fill="#3d7ca6" stroke="#3d7ca6" stroke-linecap="round" stroke-linejoin="round"/><polygon points="26.83 16.48 26.83 18.35 22.86 20.28 22.78 18.36 26.83 16.48" fill="#d8d8d8"/><line x1="24.8" y1="17.42" x2="24.8" y2="19.42" fill="none" stroke="#3d7ca6" stroke-miterlimit="10" stroke-width="0.25"/></g></svg>