<svg xmlns="http://www.w3.org/2000/svg" viewBox="0 0 32 32"><title>abc_publishModel</title><g id="Layer_25" data-name="Layer 25"><polygon points="16.63 19.58 16.63 36.86 31.06 28.22 31.06 12.76 16.63 19.58" fill="#94b500"/><polygon points="0.94 12.76 16.63 19.58 16.63 36.86 0.94 28.44 0.94 12.76" fill="#b8c43f"/><polygon points="16.63 6.89 31.06 12.76 16.63 19.58 0.94 12.76 16.63 6.89" fill="#f0f4a8"/><g id="Arrow_26" data-name="Arrow 26"><polygon points="20.05 13.28 20.04 7.79 23.69 7.81 16.63 0 9.58 7.75 13.23 7.76 13.24 13.25 20.05 13.28" fill="#3d7ca6"/></g><path d="M18.23,23.38c0-3.34,3.33-4.92,3.33-1.53" fill="none" stroke="#3d7ca6" stroke-linecap="round" stroke-miterlimit="10" stroke-width="0.75"/><path d="M26.07,19.58c0-3.35,3.33-4.92,3.33-1.54" fill="none" stroke="#3d7ca6" stroke-linecap="round" stroke-miterlimit="10" stroke-width="0.75"/><path d="M28.71,21.23c-1.08,5.13-6.81,6.79-8,3.77Z" fill="#3d7ca6" stroke="#3d7ca6" stroke-linecap="round" stroke-linejoin="round"/><polygon points="26.83 21.48 26.83 23.35 22.86 25.28 22.78 23.36 26.83 21.48" fill="#d8d8d8"/><line x1="24.8" y1="22.42" x2="24.8" y2="24.42" fill="none" stroke="#3d7ca6" stroke-miterlimit="10" stroke-width="0.25"/></g></svg>