<?xml version="1.0" encoding="utf-8"?>
<!-- Generator: Adobe Illustrator 22.1.0, SVG Export Plug-In . SVG Version: 6.00 Build 0)  -->
<svg version="1.1" xmlns="http://www.w3.org/2000/svg" xmlns:xlink="http://www.w3.org/1999/xlink" x="0px" y="0px"
	 viewBox="0 0 32 32" style="enable-background:new 0 0 32 32;" xml:space="preserve">
<style type="text/css">
	.st0{fill:#94B500;}
	.st1{fill:none;}
	.st2{display:none;}
	.st3{display:inline;}
	.st4{fill:#424242;}
	.st5{fill:none;stroke:#FCA306;stroke-width:2;stroke-miterlimit:10;}
	.st6{fill:none;stroke:#FCA306;stroke-width:2;stroke-miterlimit:10;stroke-dasharray:8.153,1.3588;}
	.st7{fill:none;stroke:#FCA306;stroke-width:2;stroke-miterlimit:10;stroke-dasharray:8.1592,1.3599;}
	.st8{display:inline;fill:none;stroke:#037ADD;stroke-width:2;stroke-miterlimit:10;}
	.st9{fill:#7A8946;stroke:#424242;stroke-width:2;stroke-miterlimit:10;}
	.st10{fill:none;stroke:#FCA306;stroke-width:4;stroke-miterlimit:10;}
	.st11{display:inline;fill:url(#SVGID_1_);}
</style>
<g id="Layer_2">
	<path class="st0" d="M26,32H6c-3.3,0-6-2.7-6-6L0,6c0-3.3,2.7-6,6-6l20,0c3.3,0,6,2.7,6,6v20C32,29.3,29.3,32,26,32z"/>
	<rect class="st1" width="32" height="32"/>
</g>
<g id="Layer_5" class="st2">
	<g class="st3">
		<path class="st4" d="M15.9,17.7c-2,2-4.2,4.3-7.4,4.3c-3.4,0-5.8-2.5-5.8-5.9c0-3.2,2.6-5.9,6.1-5.9c3,0,5.2,2.4,7.1,4.3
			c2-2,4.2-4.3,7.4-4.3c3.4,0,5.8,2.5,5.8,5.9c0,3.2-2.6,5.9-6.1,5.9C20,22,17.8,19.7,15.9,17.7z M14.3,16.1
			c-1.6-1.4-3.2-3.5-5.5-3.5c-2,0-3.5,1.6-3.5,3.5c0,2,1.4,3.5,3.4,3.5C10.9,19.6,12.8,17.7,14.3,16.1z M26.5,16.1
			c0-2-1.4-3.5-3.4-3.5c-2.3,0-4.1,2-5.6,3.5c1.6,1.4,3.2,3.5,5.5,3.5C25,19.6,26.5,18,26.5,16.1z"/>
	</g>
</g>
<g id="Layer_4" class="st2">
	<g class="st3">
		<g>
			<path class="st5" d="M8.7,4.4c0,0,1.3,0.6,2.6,1.5"/>
			<path class="st6" d="M12.4,6.8c2,1.8,3.3,4.4-0.6,7.3"/>
			<path class="st5" d="M11.2,14.5c-0.7,0.5-1.6,1-2.6,1.4"/>
		</g>
	</g>
	<g class="st3">
		<g>
			<path class="st5" d="M8.6,15.9c-1,0.5-1.9,1-2.6,1.4"/>
			<path class="st7" d="M4.9,18.2c-3.5,3-1.7,5.6,0.5,7.3"/>
			<path class="st5" d="M5.9,25.9c1.3,0.9,2.6,1.5,2.6,1.5"/>
		</g>
	</g>
	<path class="st8" d="M23.9,4.4c0,0,12.6,5.6-0.2,11.5"/>
	<path class="st8" d="M23.7,15.9c-12.7,5.9-0.1,11.5-0.1,11.5"/>
</g>
<g id="Layer_6">
</g>
<g id="Layer_7">
	<circle class="st9" cx="15.5" cy="15.5" r="13.4"/>
	<rect x="0" y="0" class="st1" width="31" height="31"/>
	<line class="st10" x1="23.6" y1="16.9" x2="23.6" y2="30.3"/>
	<line class="st10" x1="30.3" y1="23.6" x2="16.9" y2="23.6"/>
</g>
<g id="Layer_1" class="st2">
	<radialGradient id="SVGID_1_" cx="120.7968" cy="-91.243" r="113.5878" gradientUnits="userSpaceOnUse">
		<stop  offset="0" style="stop-color:#C7C7C7"/>
		<stop  offset="1" style="stop-color:#474747"/>
	</radialGradient>
	<circle class="st11" cx="120.8" cy="-52.4" r="67.2"/>
	<g class="st3">
		
			<text transform="matrix(1 0 0 1 83.5835 -2.5234)" style="fill:#21215E;stroke:#21215E;stroke-width:14;stroke-miterlimit:10; font-family:'PTSans-Caption'; font-size:129.5756px;">S</text>
	</g>
	<g class="st3">
		
			<text transform="matrix(1 0 0 1 83.5835 -11.1621)" style="fill:#F20000;stroke:#E50000;stroke-width:14;stroke-miterlimit:10; font-family:'PTSans-Caption'; font-size:129.5756px;">S</text>
	</g>
</g>
<g id="Layer_3" class="st2">
</g>
</svg>
