<?xml version="1.0" encoding="UTF-8" standalone="no"?>
<!DOCTYPE svg PUBLIC "-//W3C//DTD SVG 1.1//EN" "http://www.w3.org/Graphics/SVG/1.1/DTD/svg11.dtd">
<svg width="100%" height="100%" viewBox="0 0 32 32" version="1.1" xmlns="http://www.w3.org/2000/svg" xmlns:xlink="http://www.w3.org/1999/xlink" xml:space="preserve" xmlns:serif="http://www.serif.com/" style="fill-rule:evenodd;clip-rule:evenodd;stroke-linejoin:round;stroke-miterlimit:2;">
    <g id="Layer_2">
        <path d="M32,6C32,2.689 29.311,0 26,0L6,0C2.689,0 0,2.689 0,6L0,26C0,29.311 2.689,32 6,32L26,32C29.311,32 32,29.311 32,26L32,6Z" style="fill:rgb(148,181,0);"/>
        <rect x="0" y="0" width="32" height="32" style="fill:none;"/>
    </g>
    <g id="backpack" transform="matrix(0.0566406,0,0,0.0566406,16.0277,15.6785)">
        <g transform="matrix(1,0,0,1,-256,-256)">
            <g>
                <g>
                    <path d="M408,328L408,80C408,62.328 393.672,48 376,48L424,48C441.672,48 456,62.328 456,80L456,328C456,341.256 445.256,352 432,352C418.744,352 408,341.256 408,328Z" style="fill:rgb(53,55,68);fill-rule:nonzero;"/>
                </g>
                <path d="M448,352L432,352C429.176,352 426.512,351.424 424,350.528L424,384C424,407.624 411.096,428.256 392,439.336L392,448C392,465.672 377.672,480 360,480C412.936,480 456,436.936 456,384L456,350.528C453.488,351.424 450.824,352 448,352Z" style="fill:rgb(128,128,128);fill-rule:nonzero;"/>
                <g>
                    <path d="M424,32C397.488,32 376,53.488 376,80L376,192L392,192L392,80C392,62.328 406.328,48 424,48C441.672,48 456,62.328 456,80L456,328C456,341.256 445.256,352 432,352L448,352C461.256,352 472,341.256 472,328L472,80C472,53.488 450.512,32 424,32Z" style="fill:rgb(53,55,68);fill-rule:nonzero;"/>
                </g>
                <g>
                    <g>
                        <path d="M280,192L280,80C280,62.328 265.672,48 248,48L296,48C313.672,48 328,62.328 328,80L328,192L280,192Z" style="fill:rgb(53,55,68);fill-rule:nonzero;"/>
                    </g>
                    <g>
                        <path d="M296,32L248,32C221.488,32 200,53.488 200,80L200,192L248,192L248,80C248,53.488 269.488,32 296,32Z" style="fill:rgb(85,82,91);fill-rule:nonzero;"/>
                    </g>
                    <g>
                        <path d="M296,32C269.488,32 248,53.488 248,80L248,192L264,192L264,80C264,62.328 278.328,48 296,48C313.672,48 328,62.328 328,80L328,192L344,192L344,80C344,53.488 322.512,32 296,32Z" style="fill:rgb(53,55,68);fill-rule:nonzero;"/>
                    </g>
                </g>
                <g>
                    <g>
                        <path d="M408,328L408,80C408,62.328 393.672,48 376,48L424,48C441.672,48 456,62.328 456,80L456,328C456,341.256 445.256,352 432,352C418.744,352 408,341.256 408,328Z" style="fill:rgb(53,55,68);fill-rule:nonzero;"/>
                    </g>
                    <g>
                        <path d="M424,32L376,32C349.488,32 328,53.488 328,80L328,192L376,192L376,80C376,53.488 397.488,32 424,32Z" style="fill:rgb(85,82,91);fill-rule:nonzero;"/>
                    </g>
                </g>
                <g>
                    <path d="M264,64L184,64C113.304,64 56,121.304 56,192L56,448C56,465.672 70.328,480 88,480L360,480C377.672,480 392,465.672 392,448L392,192C392,121.304 334.696,64 264,64Z" style="fill:rgb(92,118,178);fill-rule:nonzero;"/>
                </g>
                <g>
                    <path d="M184,64C113.304,64 56,121.304 56,192L56,448C56,465.672 70.328,480 88,480L280,480C297.672,480 312,465.672 312,448L312,192C312,121.304 254.696,64 184,64Z" style="fill:rgb(111,164,216);fill-rule:nonzero;"/>
                </g>
                <g>
                    <path d="M248,240L72,240C54.328,240 40,254.328 40,272L40,416C40,433.672 54.328,448 72,448L248,448C265.672,448 280,433.672 280,416L280,272C280,254.328 265.672,240 248,240Z" style="fill:rgb(246,136,32);fill-rule:nonzero;"/>
                </g>
                <g>
                    <path d="M200,240L72,240C54.328,240 40,254.328 40,272L40,416C40,433.672 54.328,448 72,448L200,448C217.672,448 232,433.672 232,416L232,272C232,254.328 217.672,240 200,240Z" style="fill:rgb(251,190,24);fill-rule:nonzero;"/>
                </g>
                <g>
                    <rect x="40" y="288" width="192" height="16" style="fill:rgb(246,136,32);fill-rule:nonzero;"/>
                </g>
                <g>
                    <path d="M236,160L128,160C123.584,160 120,156.416 120,152C120,147.584 123.584,144 128,144L236,144C240.416,144 244,147.584 244,152C244,156.416 240.416,160 236,160Z" style="fill:rgb(219,222,227);fill-rule:nonzero;"/>
                </g>
                <g>
                    <path d="M344,192L344,216C344,220.416 347.584,224 352,224C356.416,224 360,220.416 360,216L360,192C360,121.304 302.696,64 232,64L216,64C286.696,64 344,121.304 344,192Z" style="fill:rgb(85,82,91);fill-rule:nonzero;"/>
                </g>
            </g>
        </g>
    </g>
</svg>
