<svg xmlns="http://www.w3.org/2000/svg" viewBox="0 0 32 32"><title>cacheBifrost</title><g id="Layer_2" data-name="Layer 2"><rect width="32" height="32" rx="6" ry="6" fill="#3d7ca6"/></g><g id="Layer_21" data-name="Layer 21"><path d="M23.37,19.21a10.88,10.88,0,0,1-.47,3.3,7.06,7.06,0,0,1-1.41,2.59,6.34,6.34,0,0,1-2.34,1.71,8.29,8.29,0,0,1-3.27.61,8.45,8.45,0,0,1-3.15-.54,5.8,5.8,0,0,1-2.24-1.56,6.59,6.59,0,0,1-1.33-2.5,11.26,11.26,0,0,1-.44-3.32,11.2,11.2,0,0,1,.46-3.3,7.19,7.19,0,0,1,1.4-2.59,6.29,6.29,0,0,1,2.34-1.7,8.23,8.23,0,0,1,3.27-.6,8.37,8.37,0,0,1,3.15.54,5.73,5.73,0,0,1,2.24,1.56,6.64,6.64,0,0,1,1.35,2.49A11.63,11.63,0,0,1,23.37,19.21Zm-2.78.18a11.6,11.6,0,0,0-.22-2.25,5.83,5.83,0,0,0-.73-1.86A3.61,3.61,0,0,0,18.25,14a4.54,4.54,0,0,0-2.16-.46A4.72,4.72,0,0,0,14,14a3.75,3.75,0,0,0-1.42,1.2A5.31,5.31,0,0,0,11.77,17a9.38,9.38,0,0,0-.27,2.31,10.93,10.93,0,0,0,.22,2.27,5.42,5.42,0,0,0,.74,1.84,3.75,3.75,0,0,0,1.39,1.26,4.56,4.56,0,0,0,2.17.46,4.66,4.66,0,0,0,2.05-.42,3.69,3.69,0,0,0,1.43-1.19,5.16,5.16,0,0,0,.83-1.82A10,10,0,0,0,20.59,19.39Zm-5.9-12.1a1.79,1.79,0,0,1-.32,1.22,1.71,1.71,0,0,1-1.21.32A1.7,1.7,0,0,1,12,8.52a1.76,1.76,0,0,1-.31-1.18A1.81,1.81,0,0,1,12,6.1a1.66,1.66,0,0,1,1.2-.33,1.62,1.62,0,0,1,1.2.33A1.72,1.72,0,0,1,14.69,7.29Zm5.77,0a1.73,1.73,0,0,1-.33,1.22,1.68,1.68,0,0,1-1.2.32,1.67,1.67,0,0,1-1.19-.31,1.7,1.7,0,0,1-.31-1.18,1.81,1.81,0,0,1,.32-1.24,1.64,1.64,0,0,1,1.19-.33,1.67,1.67,0,0,1,1.21.33A1.72,1.72,0,0,1,20.46,7.29Z" fill="#2d2d2d"/></g></svg>