<svg xmlns="http://www.w3.org/2000/svg" viewBox="0 0 32 32"><title>checkOutYeti</title><g id="Layer_25" data-name="Layer 25"><rect width="32" height="32" rx="6" style="fill:#3d7ca6"/><path d="M15.42,4.17a14.46,14.46,0,0,1,9.84,4.22c.19.2.38.41.56.63s-.05.43.12.67.59.62.71.81.42.36.57.68c.08.16-.23.31-.12.44a9.55,9.55,0,0,1,1,1.53,6.63,6.63,0,0,1,.6,1.22c0,.22-.49.36-.46.59a18.5,18.5,0,0,1,.08,2.12c0,.44.38,1.32.38,1.69,0,.14,0,.27,0,.4s-.32,0-.3.18a5.31,5.31,0,0,1-.12,2c-.22.72-.6.64-.8.89a5,5,0,0,1-.84,1c-.24.16-.55,0-.95.1-.19,0-.27.45-.48.57a1.26,1.26,0,0,1-1-.05,1.5,1.5,0,0,1-.71-1.12,22.22,22.22,0,0,1,.07-5.23c.08-1.67,0-3.5-.46-3.5-.23,0-.35.33-.43,1.07,0,.29.36,1.06.34,1.49,0,.25-.41.1-.42.4s.2.48.19.73.13.54.13.87c0,.09-.44.08-.44.17a5,5,0,0,0,.21.94,8.58,8.58,0,0,1,0,2.29,2.64,2.64,0,0,1,0,.29c0,.13-.47-.49-.44-.37a2.42,2.42,0,0,1,0,1.12c0,.24-.23.09-.25.31,0,.41.11.9.09,1.5A15.42,15.42,0,0,1,22,26.76H17.5a4.26,4.26,0,0,0,0-1.59c-.05-.12-.36.25-.44.14s0-.32-.18-.42-.2.27-.34.23-.22-.3-.5-.33c-.08,0-.17.27-.29.25s-.19-.37-.34-.36a2.12,2.12,0,0,0-.4.1c-.14,0-.25.42-.35.49s-.3-.36-.39-.17a4,4,0,0,0-.15,1.66H9.63s-.27-1.56-.44-3.42c-.19-2.06.35-2.32.28-2.78s-.39.51-.47,0,.43-2,.38-2.38-.61.65-.64.4.38-1.67.35-2-.53.22-.53,0c0-1.84.73-3.3.07-3.3S7.75,18,8.08,19.75,7.92,24.92,6.45,24c-.16-.1-.29-.4-.45-.51s-.71,0-1-.17a2.12,2.12,0,0,1-.7-1.1c-.12-.38-.57-.15-.84-.81A10.77,10.77,0,0,1,3,16.17a12.35,12.35,0,0,1,.31-1.59c.11-.41-.15-1,0-1.37a9.28,9.28,0,0,1,1.26-1.79A32.26,32.26,0,0,1,7,7.9,14.35,14.35,0,0,1,9.43,6.19a10.7,10.7,0,0,1,5.09-2c.16,0,.4-.5.56-.51S15.28,4.17,15.42,4.17Z" style="fill:#2d2d2d"/><path d="M11.12,11.73c.33,0,.63-.27.69.74s.46,1.06.82.55.85-1.34,1,.05.85,1.33,1.26.27.87-.37,1.09.14c.41,1,1.28,1,1.31-.25,0-1.49,1.15-.64,1.29-.32s.73,1,.79-.36.76-.68.76-.68" style="fill:none;stroke:#3d7ca6;stroke-linecap:round;stroke-miterlimit:10;stroke-width:0.5px"/><circle cx="12.83" cy="9.34" r="0.94" style="fill:#3d7ca6"/><circle cx="18.6" cy="9.34" r="0.94" style="fill:#3d7ca6"/><path d="M11.65,18.38V28.71H9.4a5.31,5.31,0,0,1-5.09-5.17,5.29,5.29,0,0,1,5.12-5.16Z" style="fill:#d8d8d8"/><path d="M11.41,20.28h4.11a1.08,1.08,0,1,1,0,2.16H11.41Z" style="fill:#d8d8d8"/><path d="M11.41,24.75h4.11a1.08,1.08,0,1,1,0,2.16H11.41Z" style="fill:#d8d8d8"/><rect x="2.2" y="20.26" width="2.31" height="6.67" transform="translate(26.95 20.24) rotate(90)" style="fill:#d8d8d8"/><rect x="27.6" y="20.26" width="2.31" height="6.67" transform="translate(52.35 -5.16) rotate(90)" style="fill:#d8d8d8"/><rect x="20.33" y="18.38" width="7.42" height="10.33" rx="2.02" style="fill:#d8d8d8"/><path d="M8.08,19.75c.34,1.75-.16,5.17-1.63,4.28-.16-.1-.29-.4-.45-.51s-.71,0-1-.17a2.12,2.12,0,0,1-.7-1.1c-.12-.38-.57-.15-.84-.81A10.77,10.77,0,0,1,3,16.17a12.35,12.35,0,0,1,.31-1.59c.11-.41-.15-1,0-1.37a9.28,9.28,0,0,1,1.26-1.79" style="fill:#2d2d2d"/><path d="M28.75,14.37c0,.22-.49.36-.46.59a18.5,18.5,0,0,1,.08,2.12c0,.44.38,1.32.38,1.69,0,.14,0,.27,0,.4s-.32,0-.3.18a5.31,5.31,0,0,1-.12,2c-.22.72-.6.64-.8.89a5,5,0,0,1-.84,1c-.24.16-.55,0-.95.1-.19,0-.27.45-.48.57a1.26,1.26,0,0,1-1-.05,1.5,1.5,0,0,1-.71-1.12,22.22,22.22,0,0,1,.07-5.23c.08-1.67,0-3.5-.46-3.5" style="fill:#2d2d2d"/></g></svg>