<svg xmlns="http://www.w3.org/2000/svg" viewBox="0 0 32 32"><title>checkOutYeti</title><g id="Layer_25" data-name="Layer 25"><rect width="32" height="32" rx="6" style="fill:#3d7ca6"/><path d="M11.65,11.38V21.71H9.4a5.31,5.31,0,0,1-5.09-5.17,5.29,5.29,0,0,1,5.12-5.16Z" style="fill:#d8d8d8"/><path d="M11.41,13.28h4.11a1.08,1.08,0,1,1,0,2.16H11.41Z" style="fill:#d8d8d8"/><path d="M11.41,17.75h4.11a1.08,1.08,0,1,1,0,2.16H11.41Z" style="fill:#d8d8d8"/><rect x="2.2" y="13.26" width="2.31" height="6.67" transform="translate(19.95 13.24) rotate(90)" style="fill:#d8d8d8"/><rect x="27.6" y="13.26" width="2.31" height="6.67" transform="translate(45.35 -12.16) rotate(90)" style="fill:#d8d8d8"/><rect x="20.33" y="11.38" width="7.42" height="10.33" rx="2.02" style="fill:#d8d8d8"/></g></svg>