<svg xmlns="http://www.w3.org/2000/svg" viewBox="0 0 32 32"><defs><style>.cls-1{fill:#94b500;}.cls-2,.cls-3,.cls-4,.cls-5{fill:none;stroke-miterlimit:10;stroke-width:2px;}.cls-2,.cls-3,.cls-4{stroke:#fca306;}.cls-3{stroke-dasharray:8.15 1.36;}.cls-4{stroke-dasharray:8.16 1.36;}.cls-5{stroke:#3d7ca6;}</style></defs><title>icons</title><g id="Layer_2" data-name="Layer 2"><rect class="cls-1" width="32" height="32" rx="6" ry="6"/></g><g id="Layer_4" data-name="Layer 4"><path class="cls-2" d="M8.6,4.41a16.28,16.28,0,0,1,2.58,1.51"/><path class="cls-3" d="M12.24,6.77c2,1.8,3.3,4.45-.61,7.31"/><path class="cls-2" d="M11.07,14.47a20.06,20.06,0,0,1-2.63,1.44"/><path class="cls-2" d="M8.44,15.91A21.51,21.51,0,0,0,5.8,17.35"/><path class="cls-4" d="M4.71,18.16c-3.53,2.95-1.65,5.63.49,7.34"/><path class="cls-2" d="M5.73,25.9a16.61,16.61,0,0,0,2.59,1.51"/><path class="cls-5" d="M23.71,4.41S36.3,10,23.55,15.91"/><path class="cls-5" d="M23.55,15.91c-12.75,5.93-.12,11.5-.12,11.5"/></g></svg>