<svg xmlns="http://www.w3.org/2000/svg" viewBox="0 0 32 32"><title>exportForTexturing</title><g id="Layer_2" data-name="Layer 2"><rect width="32" height="32" rx="6" ry="6" fill="#d8d8d8"/></g><g id="Layer_25" data-name="Layer 25"><polygon points="16.56 24.89 16.56 40.05 29.21 32.47 29.21 18.92 16.56 24.89" fill="none" stroke="#424242" stroke-linejoin="round"/><polygon points="2.79 18.92 16.56 24.89 16.56 40.05 2.79 32.67 2.79 18.92" fill="none" stroke="#424242" stroke-linejoin="round"/><polygon points="16.56 13.77 29.21 18.92 16.56 24.89 2.79 18.92 16.56 13.77" fill="none" stroke="#424242" stroke-linejoin="round"/><g id="Arrow_26" data-name="Arrow 26"><rect x="11.95" y="1.55" width="23.39" height="13.44" transform="translate(1.07 19.14) rotate(-45)" fill="none"/><polyline points="22.88 16.34 9.67 21.91 9.67 36.36" fill="none" stroke="#424242" stroke-miterlimit="10" stroke-width="0.5"/><polyline points="29.21 26.35 16.56 32 2.79 26.35" fill="none" stroke="#424242" stroke-miterlimit="10" stroke-width="0.5"/><polyline points="23.35 35.98 23.34 21.69 10.62 16.34" fill="none" stroke="#424242" stroke-miterlimit="10" stroke-width="0.5"/><polyline points="6.24 34.52 6.32 20.45 19.5 14.83" fill="none" stroke="#424242" stroke-miterlimit="10" stroke-width="0.25"/><polyline points="25.33 17.34 12.87 23.3 12.74 38" fill="none" stroke="#424242" stroke-miterlimit="10" stroke-width="0.25"/><polyline points="20.08 37.94 20.08 23.23 7.06 17.32" fill="none" stroke="#424242" stroke-miterlimit="10" stroke-width="0.25"/><polyline points="26.3 34.22 26.39 20.25 13.77 14.81" fill="none" stroke="#424242" stroke-miterlimit="10" stroke-width="0.25"/><polyline points="2.79 22.83 16.56 28.72 29.21 23.09" fill="none" stroke="#424242" stroke-miterlimit="10" stroke-width="0.25"/><polyline points="2.79 29.48 16.28 35.8 29.21 29.18" fill="none" stroke="#424242" stroke-miterlimit="10" stroke-width="0.25"/></g><g id="Layer_26" data-name="Layer 26"><polygon points="21.16 19.2 21.14 11.81 26.05 11.85 16.56 1.33 7.06 11.77 11.97 11.78 11.99 19.17 21.16 19.2" fill="#3d7ca6"/></g></g></svg>