<svg xmlns="http://www.w3.org/2000/svg" xmlns:xlink="http://www.w3.org/1999/xlink" viewBox="0 0 32 32"><defs><radialGradient id="radial-gradient" cx="-2748.62" cy="262.44" r="4.33" gradientTransform="matrix(-1, -0.05, 0.05, -1, -2741.68, 137.43)" gradientUnits="userSpaceOnUse"><stop offset="0.17" stop-color="#fecc81"/><stop offset="0.23" stop-color="#ffd492"/><stop offset="0.37" stop-color="#ffe7bc"/><stop offset="0.47" stop-color="#fff2d7"/><stop offset="0.53" stop-color="#fef7e2"/></radialGradient><linearGradient id="linear-gradient" x1="15.92" y1="179.87" x2="15.92" y2="170.44" gradientTransform="matrix(1, 0, 0, -1, 0, 201.33)" gradientUnits="userSpaceOnUse"><stop offset="0" stop-color="#fcb316"/><stop offset="0.07" stop-color="#ffcb28"/><stop offset="0.32" stop-color="#ffc826"/><stop offset="0.57" stop-color="#febf1e"/><stop offset="0.78" stop-color="#fcb316"/></linearGradient><linearGradient id="linear-gradient-2" x1="7.67" y1="183.29" x2="24.17" y2="183.29" gradientTransform="matrix(1, 0, 0, -1, 0, 201.33)" gradientUnits="userSpaceOnUse"><stop offset="0.24" stop-color="#ffd54e"/><stop offset="0.75" stop-color="#fec111"/></linearGradient><radialGradient id="radial-gradient-2" cx="18" cy="526.55" r="21.51" gradientTransform="matrix(0.98, 0.23, 0.17, -0.65, -86.11, 339.56)" gradientUnits="userSpaceOnUse"><stop offset="0.47" stop-color="#fef7e2"/><stop offset="0.53" stop-color="#fff2d7"/><stop offset="0.63" stop-color="#ffe7bc"/><stop offset="0.77" stop-color="#ffd492"/><stop offset="0.83" stop-color="#fecc81"/></radialGradient><radialGradient id="radial-gradient-3" cx="-95.3" cy="-266.6" r="11.19" gradientTransform="matrix(1.03, -0.16, -0.1, -0.66, 85.32, -190.43)" xlink:href="#radial-gradient-2"/><radialGradient id="radial-gradient-4" cx="-260.83" cy="-236.13" r="16.13" gradientTransform="matrix(1.16, -0.17, -0.14, -0.66, 285.95, -196.72)" xlink:href="#radial-gradient-2"/><radialGradient id="radial-gradient-5" cx="-85.27" cy="-566.9" r="24" gradientTransform="matrix(0.97, -0.21, -0.13, -0.52, 24.94, -307.99)" gradientUnits="userSpaceOnUse"><stop offset="0.45" stop-color="#fef7e2"/><stop offset="0.5" stop-color="#fff2d7"/><stop offset="0.58" stop-color="#ffe7bc"/><stop offset="0.7" stop-color="#ffd492"/><stop offset="0.74" stop-color="#fecc81"/></radialGradient></defs><title>icecream</title><g id="Layer_25" data-name="Layer 25"><path d="M-48.89,3.41c.71-1.39,3.24-1.7,4.09-.29,1.2,2,1.57,6,4.23,6.39A9.78,9.78,0,0,0-41.14,8c-.22-.46-.63-1.4.13-1.62,0,0,2.12-.12,1.4-.52a2.07,2.07,0,0,1-1-1c-.24-.45,0-.79.46-.89a4,4,0,0,1,2.26.59c.42.2,2.32,1.89,2.7.68.05-.16.15-.43.35-.47a2,2,0,0,1,2,1.12c.47.7.68,1.47,1.21,2.14A6.66,6.66,0,0,0-30,9.24c1.48-.53,1.72-3.54,2.24-4.93.75-2,3-1.6,4.27-.45a3.54,3.54,0,0,1,.11,5,11.15,11.15,0,0,1-5.54,3c.4,1.63,2,3.34,1.54,5-.27,1.06-.84,1.65-.25,2.9.34.74.77,1.4,1,2.18.17.51.91,2.2-.07,2.47a.66.66,0,0,1-.55-.11A9.31,9.31,0,0,0-27,26a2.3,2.3,0,0,1,.06,1.53.54.54,0,0,1-.56.39,5.82,5.82,0,0,1-.32,1.9c-.5,1.52.3,2.94-.19,4.4-.19.55-.49.62-.82.45-.12,1.17-.09,2.41,1.07,2.78.65.21,1.62.1,1.76,1,.07.46-.21.67-.63.76a11,11,0,0,0,2.83-.58,19.94,19.94,0,0,1,3.08-.48,7.25,7.25,0,0,1,3.73.58l1.57-.37A40.31,40.31,0,0,1-3.74,37c1.81,0,3.63.12,5.44.2.84,0,1.34.07,1.9-.87.13-.23.29-.26.53-.33,1.68-.47,4.18,1.3,5.71,2.19,3.17,1.19,7.61-.53,9.77,2.72a.23.23,0,0,1-.08.31,2.9,2.9,0,0,1-.47.23,10.14,10.14,0,0,1,2.19,1.08c.44.38,1.07,1.16.79,1.79a.86.86,0,0,1-.65.51c1.49,1.47.92,3.86-1.49,3.2l-.35-.11C19,50.65,23.18,53.51,21,56.11a.21.21,0,0,1-.29,0,30.29,30.29,0,0,1,.1,3.14c0,1.1.12,3.25-.94,4a.23.23,0,0,1-.34-.13c0-.24-.09-.47-.12-.7-.33,3,.16,6.36-2.36,8.11a.23.23,0,0,1-.34-.13,2.55,2.55,0,0,1-.07-1.31,5.92,5.92,0,0,1-.7,1.43,15.28,15.28,0,0,1-1.68,2.73c-.08.11-1.06,1.25-.7,1.4a7.09,7.09,0,0,0,1,.25.68.68,0,0,1,.47.58A42.3,42.3,0,0,1,15,84.12a3.35,3.35,0,0,1-.66,2.07c-.44.47-1.37.52-1.9.91-.2.15-.39-.11-.3-.3h-.78c-.11.26-.54.15-.44-.13.47-1.15,0-1.64-.13-2.66s.23-1.9.21-2.89a8.87,8.87,0,0,0-.34-2.29c-.4-1.47-1.76-1.75-2.82-2.55S6.21,74,5.46,73A8.13,8.13,0,0,1,4,70a3.75,3.75,0,0,1-.37.44.23.23,0,0,1-.32,0c-.77-.67-.59-2-.52-2.86.06-.73.2-1.45.32-2.18a13.23,13.23,0,0,1-3.92.74c-2.3.28-4.61.43-6.92.56A7.29,7.29,0,0,0-10.65,68c-1,.95-1.5,2.19-2.68,3a.23.23,0,0,1-.34-.13,10,10,0,0,1-.06-2.19c-.35,1.24-.66,2.44-1.88,3.14a.23.23,0,0,1-.34-.2c0-.45,0-.91,0-1.36-.54-.68-.78-.68-.73,0a1.59,1.59,0,0,1-.13.58.59.59,0,0,1-.7.36,1,1,0,0,1-.8-.9c-.15-.78-1,.9-1,.91a1.29,1.29,0,0,1-.45.5c-1.35.65.3,2.16.63,3a10.7,10.7,0,0,1,.64,3.72c0,1.5-.1,3-.09,4.51a4.6,4.6,0,0,1-.55,2.9c-.61.81-2.83.38-3.55-.06a.75.75,0,0,1-.24-.75A16.86,16.86,0,0,0-23,80.25c-.2-1.37-.16-3-.88-4.15s-2.15-1.8-2.94-2.94c-.38-.54-1.06-1.16-.91-1.9.2-.94-.56-.11-.67.35a5.34,5.34,0,0,1-.26,1c-.05.14-.25.25-.37.1a22.27,22.27,0,0,1-1.76-3.22c-.42.66-.87.39-.93,1.71a3.9,3.9,0,0,1-.33,1.65.23.23,0,0,1-.39,0c-.9-1.91-2.31-3.51-2.78-5.6a17.42,17.42,0,0,0-1.17-4.41q-.14-.27-.27-.51v0a3.58,3.58,0,0,1-.48,2.57.23.23,0,0,1-.36,0c-2.38-2.33-1.26-5.69-1.92-8.57a3.85,3.85,0,0,1-.45.88.24.24,0,0,1-.4,0c-.88-1.16-.89-2.65-1-4a23.69,23.69,0,0,0-.52-3.27,12.3,12.3,0,0,1-.56,1.22.23.23,0,0,1-.36.05c-1.23-1-1.11-3.07-1-4.52a41,41,0,0,1,.54-4.9,12.23,12.23,0,0,1-.95-3.23c-.21-1.84.29-3.54.25-5.37s-.73-3.58-.47-5.39c.17-1.17.44-2.34.71-3.5l-.08.08a.24.24,0,0,1-.33,0c-1.75-1.87-.2-4.88.73-7.18-.35.18-.66.13-.79-.46-.33-1.65,1.37-2.85,2.13-4.18a13,13,0,0,1-5.6-3.2C-49,7.87-49.86,5.3-48.89,3.41Z" fill="#f2f1d3"/></g><g id="Layer_29" data-name="Layer 29"><path d="M11.66,6.85A4.78,4.78,0,0,1,14.4,2.11c.74-.42.88-.86,1.36-1s.64.23.6.7a2,2,0,0,0,2.05,2.44h.14C17.21,6.18,11.66,6.85,11.66,6.85Z" fill="url(#radial-gradient)"/><path d="M18.69,30.84H13.15A2.23,2.23,0,0,1,11,28.93L9.35,17.55H22.5L20.89,28.93A2.23,2.23,0,0,1,18.69,30.84Z" fill="url(#linear-gradient)"/><path d="M22.7,20.88H9.15a1,1,0,0,1-1-1.06l-.47-4.61h16.5l-.47,4.61A1,1,0,0,1,22.7,20.88Z" fill="url(#linear-gradient-2)"/><path d="M22,16.58,9.77,16l.68-4.38L23,10.33a3.63,3.63,0,0,1,2.46,3.93A3,3,0,0,1,22,16.58Z" fill="url(#radial-gradient-2)"/><path d="M18.44,7.46l-5.5,1.21c-2.08.32-2.5-2.23-1.49-3.58a3.37,3.37,0,0,1,2.15-1.2l2.82-.44a2.7,2.7,0,0,1,2.66,1.17h0C19.85,6,20.19,6.87,18.44,7.46Z" fill="url(#radial-gradient-3)"/><path d="M20.54,11.62l-9.36,1.59c-2.69.35-3.66-2.41-2.42-4.62h0A3.21,3.21,0,0,1,11.14,7l7.52-1.13A3.49,3.49,0,0,1,22,7.23l.11.15C23.49,9.25,23,11.31,20.54,11.62Z" fill="url(#radial-gradient-4)"/><path d="M24.32,11.28l-.05-.08a3.29,3.29,0,0,0-3.21-1.4L9.15,11.52a3.24,3.24,0,0,0-2.41,1.59,3,3,0,0,0,1.42,4.1c.54.25.71.15,1.09.64.27.34.48.65.95.71.64.08.91-.14,1.06-.51s.15-.55.19-.63c.42-.94,1.46-.35,1.44.43l-.05.47a1.06,1.06,0,0,0,.92,1.09A1,1,0,0,0,15,18.47l.07-1a1,1,0,0,1,.86-.92,7.31,7.31,0,0,1,1.84-.36c2-.14,2.78.27,3.06.79a1.7,1.7,0,0,0,1.2.85,1.66,1.66,0,0,0,2-1.5v0a6.94,6.94,0,0,1,.64-2.48A2.65,2.65,0,0,0,24.32,11.28Z" fill="url(#radial-gradient-5)"/></g></svg>