<svg xmlns="http://www.w3.org/2000/svg" viewBox="0 0 32 32"><title>importREF</title><g id="Layer_25" data-name="Layer 25"><rect y="0.06" width="32" height="32" rx="6" style="fill:#94b500"/><rect x="6.28" y="6.34" width="19.44" height="19.44" transform="translate(-6.67 16.02) rotate(-45)" style="fill:#c8def3"/><polygon points="16 2.32 2.26 16.06 16 16.06 16 2.32" style="fill:none"/><polygon points="29.74 16.06 16 2.32 16 16.06 29.74 16.06" style="fill:#8bb2d5"/><polygon points="16 29.79 29.74 16.06 16 16.06 16 29.79" style="fill:#3f7eb0"/><polygon points="16 16.06 2.26 16.06 16 29.79 16 16.06" style="fill:#5d96bf"/><path d="M22.58,29.61l-7.74-7.95s3.42.05,4.47,0c.07-5.78-5.9-6.57-5.9-6.57S26,13.38,25.86,21.66c1.16,0,4.46,0,4.46,0Z" style="fill:#b20000"/></g></svg>