<svg xmlns="http://www.w3.org/2000/svg" viewBox="0 0 32 32"><title>incrementalSave</title><g id="Layer_2" data-name="Layer 2"><path d="M6.41,31,1,25.59V6A5,5,0,0,1,6,1H26a5,5,0,0,1,5,5V26a5,5,0,0,1-5,5Z" fill="#d8d8d8"/><path d="M26,2a4,4,0,0,1,4,4V26a4,4,0,0,1-4,4H6.83L2,25.17V6A4,4,0,0,1,6,2H26m0-2H6A6,6,0,0,0,0,6V26l6,6H26a6,6,0,0,0,6-6V6a6,6,0,0,0-6-6Z" fill="#424242"/></g><g id="Layer_24" data-name="Layer 24"><polyline points="6.92 0.45 6.92 15.08 25 14.83 25 0" fill="none" stroke="#424242" stroke-miterlimit="10" stroke-width="2"/><rect x="9.82" y="19.94" width="12.17" height="7.96" fill="#424242"/><rect x="11.9" y="21.88" width="2.04" height="4.04" fill="#d8d8d8"/><line x1="24.53" y1="0.82" x2="24.53" y2="14.26" fill="none" stroke="#fca306" stroke-miterlimit="10" stroke-width="4"/><line x1="31.25" y1="7.54" x2="17.82" y2="7.54" fill="none" stroke="#fca306" stroke-miterlimit="10" stroke-width="4"/></g></svg>