<svg xmlns="http://www.w3.org/2000/svg" viewBox="0 0 64 32"><title>io_importCam</title><g id="Layer_25" data-name="Layer 25"><path d="M51.25,24l-7.74-7.95s3.42,0,4.47,0c.07-5.79-5.89-6.57-5.89-6.57s12.6-1.73,12.44,6.55c1.16,0,4.46,0,4.46,0Z" fill="#94b500" stroke="#94b500" stroke-linecap="round" stroke-linejoin="round"/><path d="M12,23.56h-.92a1.65,1.65,0,0,0-.37-1.19A1.78,1.78,0,0,0,9.41,22v5.51a2.43,2.43,0,0,0,1.06-.21c.56-.39.65-.64.65-.64H12Z" fill="#424242"/><polygon points="10.71 7.56 27.58 5.31 26.07 18.08 12 18.17 6.95 11.74 10.71 7.56" fill="#282828"/><circle cx="11.4" cy="10.2" r="6.49" fill="#424242"/><circle cx="11.4" cy="10.2" r="3.02" fill="#5e5e5e"/><circle cx="25.07" cy="8.2" r="6.49" fill="#424242"/><circle cx="25.19" cy="8.2" r="3.02" fill="#5e5e5e"/><rect x="13.12" y="27.06" width="13.08" height="3.25" rx="1.17" ry="1.17" fill="#282828"/><path d="M13.48,16.69H26.06a1.48,1.48,0,0,1,1.48,1.48v2l2,0,2.68-2.56a.73.73,0,0,1,.52-.21h1.76a.51.51,0,0,1,.51.51v9.87a.51.51,0,0,1-.5.51l-1.79,0a.83.83,0,0,1-.5-.18l-2.7-2.33-1.94,0,0,1.72A1.49,1.49,0,0,1,26.07,29H13.48A1.48,1.48,0,0,1,12,27.56V18.17A1.48,1.48,0,0,1,13.48,16.69Z" fill="#424242"/></g></svg>