<svg xmlns="http://www.w3.org/2000/svg" viewBox="0 0 64 32"><title>io_importAnim</title><g id="Layer_25" data-name="Layer 25"><path d="M38.88,22.86a.13.13,0,0,0,0-.06c-.86-1.89-3.51,2.58-4.3,2.85-.15.05-.09.28.06.23l.16-.07a.71.71,0,0,0,.22.68,1.31,1.31,0,0,0-.09.28.34.34,0,0,0,.14.32.58.58,0,0,0,.1.58,3.7,3.7,0,0,0,0,1.72.08.08,0,0,0,0,.07v0c0,.1.13.1.2.05s.46,0,.69,0v.05c0,.16.26.09.23-.06a12.66,12.66,0,0,1,.09-2.13,1.09,1.09,0,0,0,.26-.69,1.52,1.52,0,0,0,.74-.8.83.83,0,0,0,.65-.75.8.8,0,0,0,.39-.38.89.89,0,0,0,0-.56A1,1,0,0,0,38.88,22.86Z" fill="#c9c4a9"/><path d="M28.8,22.87a1.34,1.34,0,0,1-.61.32.14.14,0,0,0-.18,0c-.79.09-1.69-.33-2.45.15-1.12.7-.57,2.36-1.6,3.18-.13.1.05.27.17.17a2.46,2.46,0,0,0,.33-.31,1.84,1.84,0,0,1-.09.28,1.77,1.77,0,0,0-.11.44.32.32,0,0,0,.09.3.58.58,0,0,0,.06.46.47.47,0,0,0,.14.14.25.25,0,0,0,0,.2.55.55,0,0,0,.17.2c0,.11,0,.22,0,.34a1.83,1.83,0,0,0,.09.65.81.81,0,0,0,.7.4.12.12,0,0,0,.21,0h0a.1.1,0,0,0,.11-.09.13.13,0,0,0,.14-.18,2.38,2.38,0,0,1-.11-1.35.9.9,0,0,0,.23-.8,1,1,0,0,0,.46-.51,1.08,1.08,0,0,0,.8-1.06,1,1,0,0,0,.76-1,.71.71,0,0,0,.27-.36,1.49,1.49,0,0,0-.12-1.1A1.34,1.34,0,0,0,29,23C29.09,22.93,28.91,22.76,28.8,22.87Zm-4,5.25h0a0,0,0,0,1,0,0h0Z" fill="#c9c4a9"/><path d="M41,14.23A.92.92,0,0,0,40.52,13a1.59,1.59,0,0,0-1.24-1.39c-1.18-.36-2.3.77-3.25,1.33h0a.8.8,0,0,0-.65.68.53.53,0,0,0,.14.41.86.86,0,0,0-.15.43.91.91,0,0,0-.37.31.93.93,0,0,0-.89-.14l-.13.07a.89.89,0,0,0-1.35-.19.93.93,0,0,0-.76.06,1.18,1.18,0,0,0-1.33-.28A1.14,1.14,0,0,0,28.88,14a1.41,1.41,0,0,0-1.74.11,1.48,1.48,0,0,0-2,.07,1.2,1.2,0,0,0-1.2.3.69.69,0,0,0-.11.13,1.8,1.8,0,0,0-1.25-.12A.87.87,0,0,0,22,15a1.67,1.67,0,0,0-.77,0,.91.91,0,0,0-.64.5.37.37,0,0,0,0,.35.88.88,0,0,0-.48.67.53.53,0,0,0,.15.46.68.68,0,0,0,0,.83.85.85,0,0,0,.55.27.91.91,0,0,0,.2.64,1,1,0,0,0-.31,1.21,1.32,1.32,0,0,0-.32.45.62.62,0,0,0,.24.79,1.07,1.07,0,0,0,.39,1.5,1.32,1.32,0,0,0,.09,1,.59.59,0,0,0,.26.26.78.78,0,0,0,.31.6.68.68,0,0,0,.47.15.94.94,0,0,0,.19.79.34.34,0,0,0,.18.14.84.84,0,0,0,0,.47.69.69,0,0,0,.07.15.69.69,0,0,0-.53.6.43.43,0,0,0,.1.31.76.76,0,0,0-.16.51.52.52,0,0,0,.18.4,1,1,0,0,0-.24.71.46.46,0,0,0,.43.47.34.34,0,0,0,.3.34.67.67,0,0,0,.39-.08.61.61,0,0,0,.84-.17.66.66,0,0,0,0-.85A1,1,0,0,0,24,27.33a.78.78,0,0,0,.41-.39l0-.05c.34,0,.62-.44.76-.87a.74.74,0,0,0,.53-.28,1,1,0,0,0,.22-.84.46.46,0,0,0,.19,0,.93.93,0,0,0,.43-.72,2,2,0,0,0,0-.35.91.91,0,0,0,.61-.06.61.61,0,0,0,.45.22,1,1,0,0,0,.63-.25,1.08,1.08,0,0,0,1.15.1.61.61,0,0,0,.34.2.88.88,0,0,0,.28,0,.71.71,0,0,0,.23.49.61.61,0,0,0,.56.14.79.79,0,0,0,.43.39.68.68,0,0,0,.62-.09.58.58,0,0,0,.28.15,1.16,1.16,0,0,0,.49,0,.76.76,0,0,0,.09.09.83.83,0,0,0,.22.14,1,1,0,0,0-.14.37.58.58,0,0,0,.05.3.67.67,0,0,0-.18.77.78.78,0,0,0-.18.48.62.62,0,0,0,.18.45.58.58,0,0,0-.05.53.73.73,0,0,0,.13.23.76.76,0,0,0-.09.42.56.56,0,0,0,.57.53.78.78,0,0,0,.71.27.4.4,0,0,0,.36-.61.5.5,0,0,0,.21-.53.36.36,0,0,0-.13-.25.48.48,0,0,0,0-.55.53.53,0,0,0-.11-.14.82.82,0,0,0,.09-.92.61.61,0,0,0,.2-.29.73.73,0,0,0,.33-.12.7.7,0,0,0,.32-.44.81.81,0,0,0,.52-.42.48.48,0,0,0,.51,0,1.46,1.46,0,0,0,.55-.5c.27.22.61.28.81-.11a1.89,1.89,0,0,0,.17-.89.8.8,0,0,0,.21-.13A1.39,1.39,0,0,0,38.4,23a.74.74,0,0,0,.65-.44,1.63,1.63,0,0,0,.14-1.39,1.09,1.09,0,0,0,.37-1.08l.06,0A1.27,1.27,0,0,0,40.15,19a.85.85,0,0,0,.41-.25.72.72,0,0,0,0-.87,1.06,1.06,0,0,0-.06-1.42,1.62,1.62,0,0,0,.2-.76,1,1,0,0,0,.52-.76A.76.76,0,0,0,41,14.23ZM21,20.91s0,0,0,0Z" fill="#f2f1d3"/><polygon points="22.63 29.44 23.74 29.44 24.57 30.23 22.98 30.23 22.63 29.44" fill="#38332f"/><polygon points="24.65 29.44 25.16 30.23 26.69 30.23 25.84 29.44 24.65 29.44" fill="#38332f"/><path d="M32.92,29.36h1.24l.84.87H33.46A2.88,2.88,0,0,1,32.92,29.36Z" fill="#38332f"/><path d="M35.11,29.25h1.15l.85,1H35.53A9.89,9.89,0,0,1,35.11,29.25Z" fill="#38332f"/><path d="M40.92,4.45s-.1-2-1.05-2.12-.6,1.54-.12,2.12S40.92,4.45,40.92,4.45Z" fill="#c9c4a9"/><path d="M41.24,5.07A3.45,3.45,0,0,1,42,7,1.27,1.27,0,0,1,43.2,8.32c0,1.27-1.39,2.18-3.77.91s-2.3-2.66-1.67-3.79S41.24,5.07,41.24,5.07Z" fill="#8e7e70"/><path d="M41.47,6.62a.29.29,0,0,0,.58,0,.29.29,0,0,0-.58,0Z" fill="#38332f"/><path d="M39.52,6.57a.29.29,0,1,0,.28-.28A.29.29,0,0,0,39.52,6.57Z" fill="#38332f"/><path d="M41.26,9.29a.8.8,0,0,0,.6-.24.86.86,0,0,0,.25-.59.06.06,0,0,0-.12,0,.81.81,0,0,1-.21.51.68.68,0,0,1-.53.2c-.57,0-.65-.71-.65-.72s0,0-.07,0-.05,0-.05.07.09.81.76.82Z" fill="#38332f"/><path d="M42.05,8.32s-.25-.44-.58-.46-.5.7.52.9c0,0,.61,0,.83-.38S42.56,7.57,42.05,8.32Z" fill="#38332f"/><path d="M35.76,11.05A.69.69,0,0,1,35.91,10a1,1,0,0,1-.22-.53.81.81,0,0,1,.37-.78.68.68,0,0,1-.15-.73,2.13,2.13,0,0,1-.44-1.17,1.6,1.6,0,0,1,.73-1.2,1.67,1.67,0,0,1,0-.32c0-.27.24-.46.37-.69l-.09-.18a3.47,3.47,0,0,1-.38-.86c-.07-.33,0-.85.3-1s.77.17,1,.41A7,7,0,0,1,37.89,4a1.15,1.15,0,0,1,.6-.25,1.29,1.29,0,0,1,.83.2c.43-.15,1-.13,1.16.25a1.47,1.47,0,0,1,1.07.06.92.92,0,0,1,.61.67c0,.33-.39.37-.74.36,0,.28,0,.58-.35.67a.46.46,0,0,1-.39-.08A.61.61,0,0,1,40,6a1.05,1.05,0,0,1-.49-.36.61.61,0,0,0-.92,0,.93.93,0,0,0-.15.84.69.69,0,0,0,.22.42.61.61,0,0,1,.2.19.11.11,0,0,1-.06.13.8.8,0,0,1-.5,0c0,.22.16.33.34.5a.16.16,0,0,1,.06.15.31.31,0,0,1-.12.14A.84.84,0,0,1,38.4,8c-.21.11,0,.35.15.36s.35-.12.38,0a1.18,1.18,0,0,1,0,.2c.07.47.44.26.63.19s.14,0,.2.07.06.2.06.27c0,.22.58.34.75.42a.72.72,0,0,1,.41.62c0,.34-.27.43-.56.41a2.29,2.29,0,0,0,.39.76.46.46,0,0,1-.06.49.54.54,0,0,1-.3.15,2.8,2.8,0,0,1,.37.53.71.71,0,0,1-.15.71.46.46,0,0,1-.56.1.58.58,0,0,1-.5.32.63.63,0,0,1-.45-.15A.75.75,0,0,1,38,13.39a.76.76,0,0,1-1.06,0,.89.89,0,0,1-1.15-.12.8.8,0,0,1-.15-1,1,1,0,0,1-.31-.53C35.31,11.45,35.6,11.31,35.76,11.05Z" fill="#f2f1d3"/><g opacity="0.7"><path d="M30.52,22.86a.13.13,0,0,0,0-.06c-.87-1.89-3.51,2.58-4.31,2.85-.14.05-.08.28.07.23l.15-.07a.74.74,0,0,0,.22.68.9.9,0,0,0-.08.28.33.33,0,0,0,.13.32.63.63,0,0,0,.1.58,4,4,0,0,0,0,1.72.14.14,0,0,0,0,.07v0a.11.11,0,0,0,.19.05c.23,0,.46,0,.69,0a.07.07,0,0,0,0,.05c0,.16.26.09.23-.06A11.69,11.69,0,0,1,28,27.43a1.09,1.09,0,0,0,.26-.69,1.56,1.56,0,0,0,.74-.8.81.81,0,0,0,.64-.75.78.78,0,0,0,.4-.38.89.89,0,0,0,0-.56A1,1,0,0,0,30.52,22.86Z" fill="#c9c4a9"/><path d="M20.44,22.87a1.39,1.39,0,0,1-.61.32.14.14,0,0,0-.18,0c-.79.09-1.69-.33-2.45.15-1.12.7-.57,2.36-1.61,3.18-.12.1.05.27.17.17a2,2,0,0,0,.33-.31,1.87,1.87,0,0,1-.08.28,2.4,2.4,0,0,0-.12.44.36.36,0,0,0,.1.3.5.5,0,0,0,.19.6.36.36,0,0,0,0,.2.55.55,0,0,0,.17.2,1.93,1.93,0,0,0,0,.34,1.62,1.62,0,0,0,.08.65.84.84,0,0,0,.71.4.12.12,0,0,0,.21,0h0a.11.11,0,0,0,.11-.09c.08,0,.19-.08.14-.18a2.3,2.3,0,0,1-.11-1.35.87.87,0,0,0,.22-.8,1,1,0,0,0,.46-.51,1.06,1.06,0,0,0,.8-1.06,1,1,0,0,0,.77-1,.77.77,0,0,0,.27-.36,1.45,1.45,0,0,0-.13-1.1,1.32,1.32,0,0,0,.67-.35A.12.12,0,0,0,20.44,22.87Zm-4,5.25h0v0h0Z" fill="#c9c4a9"/><path d="M32.67,14.23A.92.92,0,0,0,32.16,13a1.59,1.59,0,0,0-1.24-1.39c-1.19-.36-2.3.77-3.25,1.33h0a.78.78,0,0,0-.65.68.5.5,0,0,0,.14.41.86.86,0,0,0-.15.43.91.91,0,0,0-.37.31.93.93,0,0,0-.89-.14l-.14.07a.81.81,0,0,0-1-.39.86.86,0,0,0-.38.2.93.93,0,0,0-.76.06,1.17,1.17,0,0,0-1.32-.28A1.15,1.15,0,0,0,20.52,14a1.41,1.41,0,0,0-1.74.11,1.5,1.5,0,0,0-2,.07,1.19,1.19,0,0,0-1.19.3.69.69,0,0,0-.11.13,1.81,1.81,0,0,0-1.25-.12.91.91,0,0,0-.59.48,1.63,1.63,0,0,0-.76,0,.89.89,0,0,0-.64.5.37.37,0,0,0,0,.35.86.86,0,0,0-.48.67A.53.53,0,0,0,12,17a.68.68,0,0,0,0,.83.83.83,0,0,0,.54.27.92.92,0,0,0,.21.64,1,1,0,0,0-.31,1.21,1.2,1.2,0,0,0-.32.45.61.61,0,0,0,.24.79,1.05,1.05,0,0,0,.39,1.5,1.32,1.32,0,0,0,.08,1,.61.61,0,0,0,.27.26.75.75,0,0,0,.31.6.67.67,0,0,0,.47.15.93.93,0,0,0,.18.79.44.44,0,0,0,.18.14.84.84,0,0,0,0,.47.69.69,0,0,0,.07.15.69.69,0,0,0-.53.6.47.47,0,0,0,.09.31.81.81,0,0,0-.15.51.54.54,0,0,0,.17.4,1,1,0,0,0-.24.71.48.48,0,0,0,.44.47.33.33,0,0,0,.29.34.69.69,0,0,0,.4-.08.62.62,0,0,0,.84-.17.68.68,0,0,0,0-.85,1,1,0,0,0,.09-1.09.76.76,0,0,0,.4-.39l0-.05c.34,0,.62-.44.76-.87a.76.76,0,0,0,.53-.28.94.94,0,0,0,.21-.84.48.48,0,0,0,.2,0,1,1,0,0,0,.43-.72,2,2,0,0,0,0-.35.91.91,0,0,0,.61-.06.59.59,0,0,0,.44.22,1,1,0,0,0,.64-.25,1.08,1.08,0,0,0,1.15.1.62.62,0,0,0,.33.2.88.88,0,0,0,.28,0,.8.8,0,0,0,.23.49.62.62,0,0,0,.56.14.79.79,0,0,0,.43.39.67.67,0,0,0,.62-.09.62.62,0,0,0,.29.15,1.17,1.17,0,0,0,.49,0,.38.38,0,0,0,.09.09.83.83,0,0,0,.22.14,1,1,0,0,0-.14.37.49.49,0,0,0,.05.3.65.65,0,0,0-.18.77.73.73,0,0,0-.18.48.62.62,0,0,0,.18.45.67.67,0,0,0,.08.76.77.77,0,0,0-.1.42.56.56,0,0,0,.57.53.8.8,0,0,0,.72.27A.4.4,0,0,0,26,29a.5.5,0,0,0,.21-.53.46.46,0,0,0-.13-.25.48.48,0,0,0,0-.55.53.53,0,0,0-.11-.14.82.82,0,0,0,.08-.92.7.7,0,0,0,.21-.29.77.77,0,0,0,.33-.12.7.7,0,0,0,.32-.44.83.83,0,0,0,.52-.42.48.48,0,0,0,.51,0,1.44,1.44,0,0,0,.54-.5c.28.22.62.28.82-.11a1.89,1.89,0,0,0,.17-.89.63.63,0,0,0,.2-.13A1.39,1.39,0,0,0,30,23c.25,0,.48-.16.66-.44a1.67,1.67,0,0,0,.14-1.39,1.11,1.11,0,0,0,.37-1.08l.06,0A1.27,1.27,0,0,0,31.79,19a.78.78,0,0,0,.4-.25.72.72,0,0,0,.06-.87,1,1,0,0,0-.07-1.42,1.63,1.63,0,0,0,.21-.76,1,1,0,0,0,.52-.76A.76.76,0,0,0,32.67,14.23Zm-20,6.68s0,0,0,0Z" fill="#f2f1d3"/><polygon points="14.27 29.44 15.38 29.44 16.21 30.23 14.62 30.23 14.27 29.44" fill="#38332f"/><polygon points="16.29 29.44 16.79 30.23 18.33 30.23 17.47 29.44 16.29 29.44" fill="#38332f"/><path d="M24.55,29.36H25.8l.84.87H25.09A3.11,3.11,0,0,1,24.55,29.36Z" fill="#38332f"/><path d="M26.74,29.25H27.9l.85,1H27.17S26.83,29.53,26.74,29.25Z" fill="#38332f"/><path d="M32.55,4.45s-.09-2-1-2.12-.59,1.54-.12,2.12S32.55,4.45,32.55,4.45Z" fill="#c9c4a9"/><path d="M32.87,5.07a3.43,3.43,0,0,1,.72,2,1.27,1.27,0,0,1,1.25,1.29c0,1.27-1.39,2.18-3.77.91S28.76,6.57,29.4,5.44,32.87,5.07,32.87,5.07Z" fill="#8e7e70"/><path d="M33.11,6.62a.29.29,0,0,0,.58,0,.29.29,0,0,0-.58,0Z" fill="#38332f"/><path d="M31.15,6.57a.29.29,0,1,0,.29-.28A.29.29,0,0,0,31.15,6.57Z" fill="#38332f"/><path d="M32.9,9.29a.8.8,0,0,0,.6-.24.91.91,0,0,0,.25-.59.07.07,0,0,0-.07-.06.06.06,0,0,0,0,.06.78.78,0,0,1-.22.51.65.65,0,0,1-.53.2c-.56,0-.64-.71-.64-.72a.08.08,0,0,0-.07,0s-.05,0-.05.07.09.81.76.82Z" fill="#38332f"/><path d="M33.69,8.32s-.25-.44-.58-.46-.5.7.51.9a1.08,1.08,0,0,0,.84-.38C34.69,8,34.19,7.57,33.69,8.32Z" fill="#38332f"/><path d="M27.4,11.05A.67.67,0,0,1,27.55,10a1,1,0,0,1-.22-.53.81.81,0,0,1,.36-.78.7.7,0,0,1-.14-.73,2.05,2.05,0,0,1-.44-1.17c0-.54.36-.87.73-1.2a1.13,1.13,0,0,1,0-.32c0-.27.24-.46.36-.69a1.42,1.42,0,0,0-.08-.18,3.92,3.92,0,0,1-.39-.86c-.06-.33,0-.85.31-1s.77.17.95.41A6.23,6.23,0,0,1,29.53,4a1.16,1.16,0,0,1,.59-.25,1.32,1.32,0,0,1,.84.2c.43-.15,1-.13,1.16.25a1.47,1.47,0,0,1,1.07.06.89.89,0,0,1,.6.67c0,.33-.38.37-.73.36,0,.28,0,.58-.35.67a.49.49,0,0,1-.4-.08.61.61,0,0,1-.67.13,1.16,1.16,0,0,1-.49-.36.6.6,0,0,0-.91,0,.93.93,0,0,0-.16.84.71.71,0,0,0,.23.42.73.73,0,0,1,.2.19.11.11,0,0,1-.07.13.77.77,0,0,1-.49,0c0,.22.16.33.34.5a.19.19,0,0,1,.06.15.39.39,0,0,1-.12.14A1.63,1.63,0,0,1,30,8c-.21.11,0,.35.14.36s.35-.12.39,0l0,.2c.08.47.45.26.64.19s.14,0,.2.07a.43.43,0,0,1,.06.27c0,.22.58.34.74.42a.69.69,0,0,1,.41.62c0,.34-.27.43-.56.41a2.32,2.32,0,0,0,.4.76.45.45,0,0,1-.07.49.51.51,0,0,1-.3.15,2.8,2.8,0,0,1,.37.53.73.73,0,0,1-.14.71.46.46,0,0,1-.56.1.58.58,0,0,1-.51.32.66.66,0,0,1-.45-.15c-.29.4-.87.25-1.18-.13a.76.76,0,0,1-1.06,0,.88.88,0,0,1-1.14-.12.8.8,0,0,1-.16-1,1,1,0,0,1-.3-.53C27,11.45,27.24,11.31,27.4,11.05Z" fill="#f2f1d3"/></g><g opacity="0.3"><path d="M21.86,22.86a.13.13,0,0,0,0-.06c-.86-1.89-3.5,2.58-4.3,2.85a.12.12,0,0,0,.07.23l.15-.07a.74.74,0,0,0,.22.68.9.9,0,0,0-.08.28.33.33,0,0,0,.13.32.58.58,0,0,0,.1.58,3.7,3.7,0,0,0,0,1.72.15.15,0,0,0,0,.07v0a.11.11,0,0,0,.19.05c.23,0,.46,0,.69,0v.05c0,.16.27.09.24-.06a11.69,11.69,0,0,1,.09-2.13,1.08,1.08,0,0,0,.25-.69,1.54,1.54,0,0,0,.75-.8.81.81,0,0,0,.64-.75.82.82,0,0,0,.4-.38.89.89,0,0,0,0-.56A1,1,0,0,0,21.86,22.86Z" fill="#c9c4a9"/><path d="M11.78,22.87a1.36,1.36,0,0,1-.6.32.15.15,0,0,0-.19,0c-.79.09-1.68-.33-2.45.15-1.11.7-.56,2.36-1.6,3.18-.12.1,0,.27.17.17a2,2,0,0,0,.33-.31,1.84,1.84,0,0,1-.09.28,2.36,2.36,0,0,0-.11.44.36.36,0,0,0,.1.3.54.54,0,0,0,0,.46.47.47,0,0,0,.14.14.29.29,0,0,0,0,.2.55.55,0,0,0,.17.2c0,.11,0,.22,0,.34a1.83,1.83,0,0,0,.09.65.82.82,0,0,0,.7.4.13.13,0,0,0,.22,0h0a.11.11,0,0,0,.12-.09A.13.13,0,0,0,9,29.55a2.29,2.29,0,0,1-.1-1.35.9.9,0,0,0,.22-.8,1,1,0,0,0,.46-.51,1.07,1.07,0,0,0,.8-1.06,1,1,0,0,0,.76-1,.78.78,0,0,0,.28-.36,1.49,1.49,0,0,0-.13-1.1A1.34,1.34,0,0,0,12,23C12.07,22.93,11.9,22.76,11.78,22.87Zm-4,5.25h0v0h0Z" fill="#c9c4a9"/><path d="M24,14.23A.92.92,0,0,0,23.5,13a1.58,1.58,0,0,0-1.24-1.39c-1.18-.36-2.29.77-3.25,1.33h0a.81.81,0,0,0-.65.68.57.57,0,0,0,.14.41,1,1,0,0,0-.14.43.8.8,0,0,0-.37.31.94.94,0,0,0-.9-.14l-.13.07a.81.81,0,0,0-1-.39.86.86,0,0,0-.38.2.93.93,0,0,0-.76.06,1.17,1.17,0,0,0-1.32-.28A1.16,1.16,0,0,0,11.86,14a1.41,1.41,0,0,0-1.74.11,1.49,1.49,0,0,0-2,.07,1.19,1.19,0,0,0-1.19.3l-.12.13a1.79,1.79,0,0,0-1.25-.12A.87.87,0,0,0,5,15a1.63,1.63,0,0,0-.76,0,.92.92,0,0,0-.65.5.4.4,0,0,0,0,.35.88.88,0,0,0-.48.67A.6.6,0,0,0,3.3,17a.69.69,0,0,0,0,.83.88.88,0,0,0,.55.27.87.87,0,0,0,.21.64.94.94,0,0,0-.31,1.21,1.2,1.2,0,0,0-.32.45.61.61,0,0,0,.24.79,1.05,1.05,0,0,0,.39,1.5,1.27,1.27,0,0,0,.08,1,.59.59,0,0,0,.26.26.81.81,0,0,0,.31.6.71.71,0,0,0,.48.15.93.93,0,0,0,.18.79.44.44,0,0,0,.18.14.76.76,0,0,0,0,.47.67.67,0,0,0,.06.15.7.7,0,0,0-.52.6.38.38,0,0,0,.09.31A.82.82,0,0,0,5,27.6a.55.55,0,0,0,.18.4,1,1,0,0,0-.24.71.47.47,0,0,0,.43.47.35.35,0,0,0,.3.34.66.66,0,0,0,.39-.08.61.61,0,0,0,.84-.17.65.65,0,0,0,0-.85A1,1,0,0,0,7,27.33a.74.74,0,0,0,.41-.39l0-.05c.35,0,.62-.44.77-.87a.74.74,0,0,0,.52-.28,1,1,0,0,0,.22-.84.51.51,0,0,0,.2,0,1,1,0,0,0,.42-.72,1.34,1.34,0,0,0,0-.35.92.92,0,0,0,.61-.06.59.59,0,0,0,.44.22,1,1,0,0,0,.64-.25,1.07,1.07,0,0,0,1.14.1.69.69,0,0,0,.34.2A.88.88,0,0,0,13,24a.8.8,0,0,0,.23.49.61.61,0,0,0,.56.14.79.79,0,0,0,.43.39.67.67,0,0,0,.62-.09.58.58,0,0,0,.28.15,1.16,1.16,0,0,0,.49,0l.09.09a1,1,0,0,0,.22.14.82.82,0,0,0-.13.37.49.49,0,0,0,0,.3.66.66,0,0,0-.17.77.73.73,0,0,0-.18.48.57.57,0,0,0,.17.45.61.61,0,0,0,0,.53.74.74,0,0,0,.14.23.69.69,0,0,0-.1.42.56.56,0,0,0,.57.53.79.79,0,0,0,.71.27.41.41,0,0,0,.37-.61.51.51,0,0,0,.21-.53.46.46,0,0,0-.13-.25.51.51,0,0,0,0-.55.53.53,0,0,0-.11-.14.84.84,0,0,0,.08-.92.7.7,0,0,0,.21-.29.82.82,0,0,0,.33-.12.7.7,0,0,0,.32-.44.79.79,0,0,0,.51-.42.5.5,0,0,0,.52,0,1.44,1.44,0,0,0,.54-.5c.28.22.61.28.82-.11a1.89,1.89,0,0,0,.17-.89.63.63,0,0,0,.2-.13,1.39,1.39,0,0,0,.36-.76.77.77,0,0,0,.66-.44,1.67,1.67,0,0,0,.14-1.39,1.11,1.11,0,0,0,.37-1.08l.05,0A1.25,1.25,0,0,0,23.13,19a.85.85,0,0,0,.41-.25.71.71,0,0,0,.05-.87,1.06,1.06,0,0,0-.06-1.42,1.63,1.63,0,0,0,.21-.76,1,1,0,0,0,.52-.76A.8.8,0,0,0,24,14.23ZM4,20.91s0,0,0,0Z" fill="#f2f1d3"/><polygon points="5.61 29.44 6.73 29.44 7.55 30.23 5.96 30.23 5.61 29.44" fill="#38332f"/><polygon points="7.64 29.44 8.14 30.23 9.67 30.23 8.82 29.44 7.64 29.44" fill="#38332f"/><path d="M15.9,29.36h1.25l.84.87H16.44A2.88,2.88,0,0,1,15.9,29.36Z" fill="#38332f"/><path d="M18.09,29.25h1.16l.84,1H18.52S18.18,29.53,18.09,29.25Z" fill="#38332f"/><path d="M23.9,4.45s-.1-2-1-2.12-.6,1.54-.12,2.12S23.9,4.45,23.9,4.45Z" fill="#c9c4a9"/><path d="M24.22,5.07a3.45,3.45,0,0,1,.71,2,1.27,1.27,0,0,1,1.25,1.29c0,1.27-1.39,2.18-3.77.91s-2.3-2.66-1.67-3.79S24.22,5.07,24.22,5.07Z" fill="#8e7e70"/><path d="M24.46,6.62a.29.29,0,1,0,.57,0,.29.29,0,0,0-.57,0Z" fill="#38332f"/><path d="M22.5,6.57a.29.29,0,1,0,.29-.28A.29.29,0,0,0,22.5,6.57Z" fill="#38332f"/><path d="M24.24,9.29a.8.8,0,0,0,.6-.24.82.82,0,0,0,.25-.59A.06.06,0,0,0,25,8.4a.06.06,0,0,0-.06.06.76.76,0,0,1-.21.51.67.67,0,0,1-.53.2c-.57,0-.65-.71-.65-.72a.06.06,0,0,0-.06,0,.05.05,0,0,0-.05.07s.09.81.76.82Z" fill="#38332f"/><path d="M25,8.32s-.25-.44-.57-.46-.51.7.51.9a1.08,1.08,0,0,0,.84-.38C26,8,25.54,7.57,25,8.32Z" fill="#38332f"/><path d="M18.74,11.05A.69.69,0,0,1,18.89,10a1,1,0,0,1-.22-.53A.83.83,0,0,1,19,8.65a.66.66,0,0,1-.14-.73,2,2,0,0,1-.44-1.17c0-.54.36-.87.73-1.2a1.13,1.13,0,0,1,0-.32c0-.27.24-.46.36-.69l-.08-.18a3.5,3.5,0,0,1-.39-.86c-.07-.33,0-.85.3-1s.77.17,1,.41A6.23,6.23,0,0,1,20.88,4a1.16,1.16,0,0,1,.59-.25,1.33,1.33,0,0,1,.84.2c.43-.15,1-.13,1.15.25a1.47,1.47,0,0,1,1.07.06.9.9,0,0,1,.61.67c0,.33-.39.37-.73.36,0,.28,0,.58-.36.67a.46.46,0,0,1-.39-.08A.61.61,0,0,1,23,6a1.16,1.16,0,0,1-.49-.36.61.61,0,0,0-.92,0,.93.93,0,0,0-.15.84.71.71,0,0,0,.23.42.69.69,0,0,1,.19.19.11.11,0,0,1-.06.13.76.76,0,0,1-.49,0c0,.22.15.33.34.5a.16.16,0,0,1,.05.15.29.29,0,0,1-.11.14,1.63,1.63,0,0,1-.19.09c-.21.11,0,.35.14.36s.35-.12.39,0l0,.2c.08.47.44.26.63.19s.14,0,.2.07.06.2.06.27c0,.22.59.34.75.42a.7.7,0,0,1,.41.62c0,.34-.27.43-.56.41a2.49,2.49,0,0,0,.39.76.43.43,0,0,1-.06.49.54.54,0,0,1-.3.15,2.8,2.8,0,0,1,.37.53.73.73,0,0,1-.14.71.48.48,0,0,1-.57.1.55.55,0,0,1-.5.32.63.63,0,0,1-.45-.15A.75.75,0,0,1,21,13.39a.76.76,0,0,1-1.06,0,.89.89,0,0,1-1.15-.12.8.8,0,0,1-.15-1,1,1,0,0,1-.3-.53C18.3,11.45,18.58,11.31,18.74,11.05Z" fill="#f2f1d3"/></g><path d="M53,23.68l-7.74-7.95s3.42,0,4.47,0c.07-5.78-5.9-6.57-5.9-6.57s12.61-1.73,12.45,6.55c1.16,0,4.46,0,4.46,0Z" fill="#94b500" stroke="#94b500" stroke-linecap="round" stroke-linejoin="round"/></g></svg>