<svg xmlns="http://www.w3.org/2000/svg" viewBox="0 0 32 32"><title>io_Llama</title><g id="Layer_2" data-name="Layer 2"><rect width="32" height="32" rx="6" ry="6" fill="#3d7ca6"/></g><g id="Layer_25" data-name="Layer 25"><path d="M3.11,3.41C3.82,2,6.35,1.71,7.2,3.12c1.2,2,1.57,6,4.23,6.39A9.78,9.78,0,0,0,10.86,8c-.22-.46-.63-1.4.13-1.62,0,0,2.12-.12,1.4-.52a2.07,2.07,0,0,1-1.05-1c-.24-.45,0-.79.46-.89a4,4,0,0,1,2.26.59c.42.2,2.32,1.89,2.7.68,0-.16.15-.43.35-.47a2,2,0,0,1,2,1.12c.47.7.68,1.47,1.21,2.14A6.66,6.66,0,0,0,22,9.24c1.48-.53,1.72-3.54,2.24-4.93.75-2,3-1.6,4.27-.45a3.54,3.54,0,0,1,.11,5,11.15,11.15,0,0,1-5.54,3c.4,1.63,2,3.34,1.54,5-.27,1.06-.84,1.65-.25,2.9.34.74.77,1.4,1,2.18.17.51.91,2.2-.07,2.47a.66.66,0,0,1-.55-.11A9.31,9.31,0,0,0,25,26a2.3,2.3,0,0,1,.06,1.53.54.54,0,0,1-.56.39,5.82,5.82,0,0,1-.32,1.9c-.5,1.52.3,2.94-.19,4.4-.19.55-.49.62-.82.45-.12,1.17-.09,2.41,1.07,2.78.65.21,1.62.1,1.76,1,.07.46-.21.67-.63.76a11,11,0,0,0,2.83-.58,19.94,19.94,0,0,1,3.08-.48,7.25,7.25,0,0,1,3.73.58l1.57-.37A40.31,40.31,0,0,1,48.26,37c1.81,0,3.63.12,5.44.2.84,0,1.34.07,1.9-.87.13-.23.29-.26.53-.33,1.68-.47,4.18,1.3,5.71,2.19,3.17,1.19,7.61-.53,9.77,2.72a.23.23,0,0,1-.08.31,2.9,2.9,0,0,1-.47.23,10.14,10.14,0,0,1,2.19,1.08c.44.38,1.07,1.16.79,1.79a.86.86,0,0,1-.65.51c1.49,1.47.92,3.86-1.49,3.2l-.35-.11C71,50.65,75.18,53.51,73,56.11a.21.21,0,0,1-.29,0,30.29,30.29,0,0,1,.1,3.14c0,1.1.12,3.25-.94,4a.23.23,0,0,1-.34-.13c0-.24-.09-.47-.12-.7-.33,3,.16,6.36-2.36,8.11a.23.23,0,0,1-.34-.13,2.55,2.55,0,0,1-.07-1.31,5.92,5.92,0,0,1-.7,1.43,15.28,15.28,0,0,1-1.68,2.73c-.08.11-1.06,1.25-.7,1.4a7.09,7.09,0,0,0,1,.25.68.68,0,0,1,.47.58A42.3,42.3,0,0,1,67,84.12a3.35,3.35,0,0,1-.66,2.07c-.44.47-1.37.52-1.9.91-.2.15-.39-.11-.3-.3h-.78c-.11.26-.54.15-.44-.13.47-1.15,0-1.64-.13-2.66s.23-1.9.21-2.89a8.87,8.87,0,0,0-.34-2.29c-.4-1.47-1.76-1.75-2.82-2.55S58.21,74,57.46,73A8.13,8.13,0,0,1,56,70a3.75,3.75,0,0,1-.37.44.23.23,0,0,1-.32,0c-.77-.67-.59-2-.52-2.86.06-.73.2-1.45.32-2.18a13.23,13.23,0,0,1-3.92.74c-2.3.28-4.61.43-6.92.56A7.29,7.29,0,0,0,41.35,68c-1,.95-1.5,2.19-2.68,3a.23.23,0,0,1-.34-.13,10,10,0,0,1-.06-2.19c-.35,1.24-.66,2.44-1.88,3.14a.23.23,0,0,1-.34-.2c0-.45,0-.91,0-1.36-.54-.68-.78-.68-.73,0a1.59,1.59,0,0,1-.13.58.59.59,0,0,1-.7.36,1,1,0,0,1-.8-.9c-.15-.78-1,.9-1,.91a1.29,1.29,0,0,1-.45.5c-1.35.65.3,2.16.63,3a10.7,10.7,0,0,1,.64,3.72c0,1.5-.1,3-.09,4.51a4.6,4.6,0,0,1-.55,2.9c-.61.81-2.83.38-3.55-.06a.75.75,0,0,1-.24-.75A16.86,16.86,0,0,0,29,80.25c-.2-1.37-.16-3-.88-4.15s-2.15-1.8-2.94-2.94c-.38-.54-1.06-1.16-.91-1.9.2-.94-.56-.11-.67.35a5.34,5.34,0,0,1-.26,1c-.05.14-.25.25-.37.1a22.27,22.27,0,0,1-1.76-3.22c-.42.66-.87.39-.93,1.71a3.9,3.9,0,0,1-.33,1.65.23.23,0,0,1-.39,0c-.9-1.91-2.31-3.51-2.78-5.6a17.42,17.42,0,0,0-1.17-4.41l-.27-.51v0a3.58,3.58,0,0,1-.48,2.57.23.23,0,0,1-.36,0c-2.38-2.33-1.26-5.69-1.92-8.57a3.85,3.85,0,0,1-.45.88.24.24,0,0,1-.4,0c-.88-1.16-.89-2.65-1-4a23.69,23.69,0,0,0-.52-3.27,12.3,12.3,0,0,1-.56,1.22.23.23,0,0,1-.36.05c-1.23-1-1.11-3.07-1-4.52a41,41,0,0,1,.54-4.9,12.23,12.23,0,0,1-1-3.23c-.21-1.84.29-3.54.25-5.37s-.73-3.58-.47-5.39c.17-1.17.44-2.34.71-3.5l-.08.08a.24.24,0,0,1-.33,0c-1.75-1.87-.2-4.88.73-7.18-.35.18-.66.13-.79-.46C7.5,15.08,9.2,13.88,10,12.55a13,13,0,0,1-5.6-3.2C3,7.87,2.14,5.3,3.11,3.41Z" fill="#f2f1d3"/><path d="M22.35,10.75s3.5-1.73,4-4.55,3.05-1.64,2.73.87-4.85,4.23-6.58,4.14C22.46,11.21,21.93,11,22.35,10.75Z" fill="#c9c4a9"/><path d="M11,10.57S8,9.3,7.1,7.79,7,5,5.26,4.61s-2,2.66.47,5S11.69,10.91,11,10.57Z" fill="#c9c4a9"/><path d="M20.13,15.87a.82.82,0,1,0,.82-.82A.82.82,0,0,0,20.13,15.87Z" fill="#38332f"/><path d="M11.51,15.87a.82.82,0,1,0,1.64,0,.82.82,0,1,0-1.64,0Z" fill="#38332f"/><path d="M19,17a5.61,5.61,0,0,1,2.16,2.25c.52,1.32-1.16,3.62-4.69,3.41s-6.47-3.21-2-5.8Z" fill="#c9c4a9"/><path d="M13.26,19.49a1.35,1.35,0,0,0,1.42,1.05h-.06A2,2,0,0,0,15,21.68a1.94,1.94,0,0,0,1.63.66,2.11,2.11,0,0,0,1.7-.67,2.2,2.2,0,0,0,.47-1.33A1.57,1.57,0,0,0,20.09,19a2.48,2.48,0,0,0-1.24-2h0l-.17.3A2.19,2.19,0,0,1,19.73,19c0,.47-.6,1-1.25,1-.44,0-1.49-.07-1.82-2l-.37,0a2.66,2.66,0,0,1-.57,1.68,1.43,1.43,0,0,1-1,.41,1,1,0,0,1-1.08-.77,2.5,2.5,0,0,1,1.58-2.49l-.66,0-.1.06A2.64,2.64,0,0,0,13.26,19.49Zm1.72,1a1.56,1.56,0,0,0,.71-.26,3.83,3.83,0,0,0,1.91,0,1.7,1.7,0,0,0,.83.17,1.8,1.8,0,0,1-.38,1,1.78,1.78,0,0,1-1.42.53,1.62,1.62,0,0,1-1.34-.51A1.73,1.73,0,0,1,15,20.51Z" fill="#38332f"/><path d="M18.27,16s1,0,1.08.57-1.13,2.11-2.89,2-4-2.54-1.36-2.61S18.27,16,18.27,16Z" fill="#38332f"/></g></svg>