<svg xmlns="http://www.w3.org/2000/svg" viewBox="0 0 64 32"><title>io_publishModel</title><g id="Layer_25" data-name="Layer 25"><path d="M31.05,22.2v-.1a.07.07,0,0,0,0-.05c0-.46,0-1.09-.66-1.08-.13,0-.27,0-.29.2a4.69,4.69,0,0,0,0,.53,3.25,3.25,0,0,0-.54-.14c-.79,0-1.06.44-1.29,1.13a5.32,5.32,0,0,1-1.33,2.15l0-.05c-.07-.07-.18,0-.11.1l0,.05a.39.39,0,0,1-.1.08c-.07.06,0,.17.11.11l.08-.07a3.71,3.71,0,0,1,.23,1.48,10.33,10.33,0,0,1,0,2.08c0,.33-.06.8.21,1s.64.07.9.05c0,.1,0,.2,0,.31a.08.08,0,0,0,.15,0,11,11,0,0,1,.07-1.9,3.26,3.26,0,0,1,.35-1.78c.31-.39.81-.6,1.14-1s.22-.73.33-1.11c0,.19.13.37.32.2.55-.51.31-1.5.39-2.2A.06.06,0,0,0,31.05,22.2Z" fill="#c9c4a9"/><path d="M20.11,22.27a1.14,1.14,0,0,1-.32.18v0a.08.08,0,0,0-.15,0,.15.15,0,0,0,0,.07c-.81.13-1.71-.83-2.53-.89-.48-.05-1.48.05-1.53.71a2.16,2.16,0,0,0,.23.93,5.68,5.68,0,0,1,.26,1.29,1.63,1.63,0,0,1-1.24,2,.08.08,0,0,0,.05.15,2.46,2.46,0,0,0,.84-.42c.23.49-.26,1,0,1.52a.08.08,0,0,0,.12,0c.3-.37.19.63.19.83s0,.57-.07.85l.19.3c.32,0,.64.06,1,.11V30a.08.08,0,0,0,.15,0v0l.12,0c.09,0,.13-.12,0-.14l-.17,0a3.87,3.87,0,0,1,.52-2.65c.43-.51.94-.6,1.06-1.32s.87-.89,1-1.51a4.69,4.69,0,0,0,0-1.67,1.21,1.21,0,0,0,.42-.24C20.29,22.31,20.19,22.21,20.11,22.27Z" fill="#c9c4a9"/><path d="M34.7,2.46a.84.84,0,0,0-1.35-.1C33,3,32.84,4.34,32,4.47a2.82,2.82,0,0,1,.19-.5c.07-.15.21-.46,0-.53,0,0-.7,0-.46-.17A.67.67,0,0,0,32,3c.08-.15,0-.26-.15-.29a1.23,1.23,0,0,0-.74.19c-.14.07-.77.62-.89.23,0-.06-.05-.15-.12-.16a.65.65,0,0,0-.67.37A7,7,0,0,1,29,4a1.88,1.88,0,0,1-.55.39c-.49-.18-.56-1.16-.73-1.62-.25-.67-1-.53-1.41-.15a1.17,1.17,0,0,0,0,1.65,3.63,3.63,0,0,0,1.82,1c-.13.54-.65,1.1-.51,1.65.09.35.28.54.08,1-.11.25-.25.46-.34.72s-.3.72,0,.81a.22.22,0,0,0,.18,0,2.29,2.29,0,0,1-.05.52.72.72,0,0,0,0,.5.19.19,0,0,0,.18.13,1.77,1.77,0,0,0,.11.62c.16.5-.1,1,.06,1.45.06.18.16.2.27.15,0,.38,0,.79-.35.91-.21.07-.53,0-.58.32s.07.22.21.25a3.14,3.14,0,0,1-.93-.2,5.84,5.84,0,0,0-1-.15,2.28,2.28,0,0,0-1.22.19l-.52-.13a13.43,13.43,0,0,0-3.84-.41l-1.79.07c-.28,0-.44,0-.63-.29a.23.23,0,0,0-.17-.11c-.56-.15-1.38.43-1.88.72-1,.39-2.5-.17-3.22.9a.08.08,0,0,0,0,.1l.16.08a3,3,0,0,0-.72.35c-.15.13-.36.38-.26.59a.28.28,0,0,0,.21.17c-.49.48-.3,1.27.49,1.05l.12,0c.16.89-1.2,1.83-.49,2.69,0,0,.06,0,.09,0,0,.34,0,.7,0,1s0,1.07.31,1.31a.08.08,0,0,0,.11,0,1.57,1.57,0,0,0,0-.23c.11,1-.05,2.1.78,2.67a.07.07,0,0,0,.11,0,.79.79,0,0,0,0-.43,2.27,2.27,0,0,0,.23.47,5.21,5.21,0,0,0,.56.9s.34.41.23.46-.23.05-.34.08a.23.23,0,0,0-.15.19,13.48,13.48,0,0,0,0,2.84,1.08,1.08,0,0,0,.21.68c.15.16.45.17.63.3s.13,0,.1-.1h.25c0,.09.18.05.15,0-.16-.38,0-.54,0-.88S15,28.35,15,28a3.77,3.77,0,0,1,.11-.75c.14-.48.58-.58.93-.84a5.61,5.61,0,0,0,.78-1.08,2.76,2.76,0,0,0,.48-1,.75.75,0,0,0,.12.14.07.07,0,0,0,.1,0c.25-.22.2-.65.17-.94s-.06-.48-.1-.71a4.47,4.47,0,0,0,1.29.24c.75.09,1.51.14,2.27.18a2.47,2.47,0,0,1,1,.44c.33.32.49.72.88,1a.07.07,0,0,0,.11,0,2.89,2.89,0,0,0,0-.72,1.51,1.51,0,0,0,.62,1,.07.07,0,0,0,.11-.06v-.45q.27-.33.24,0a.58.58,0,0,0,0,.19.21.21,0,0,0,.23.12.33.33,0,0,0,.27-.3c.05-.25.33.3.34.3a.47.47,0,0,0,.14.17c.45.21-.09.71-.2,1a3.37,3.37,0,0,0-.21,1.22c0,.49,0,1,0,1.48a1.52,1.52,0,0,0,.19,1c.2.26.93.12,1.17,0,.08-.05.08-.17.07-.25a5.58,5.58,0,0,1,0-1.58,3.54,3.54,0,0,1,.29-1.37c.24-.39.71-.59,1-1,.12-.18.34-.38.29-.63s.19,0,.22.12.05.21.09.32.09.08.12,0a7.27,7.27,0,0,0,.58-1.06c.14.22.29.13.31.56a1.32,1.32,0,0,0,.11.55.08.08,0,0,0,.12,0,9.39,9.39,0,0,0,.92-1.85A6.08,6.08,0,0,1,30.6,22l.09-.17h0a1.25,1.25,0,0,0,.16.85.08.08,0,0,0,.12,0c.78-.76.42-1.87.63-2.82a1.59,1.59,0,0,0,.15.29.07.07,0,0,0,.13,0,2.35,2.35,0,0,0,.32-1.33,9.71,9.71,0,0,1,.17-1.08c.06.14.12.28.19.41s.08,0,.12,0c.4-.34.36-1,.34-1.48a12.39,12.39,0,0,0-.18-1.61A4.09,4.09,0,0,0,33.15,14a17.6,17.6,0,0,0-.08-1.77,11.53,11.53,0,0,0,.16-1.77c-.06-.38-.15-.77-.24-1.15l0,0a.09.09,0,0,0,.11,0c.57-.62.06-1.61-.24-2.37.11.06.22,0,.26-.15.11-.54-.45-.93-.7-1.37a4.26,4.26,0,0,0,1.84-1.06A1.82,1.82,0,0,0,34.7,2.46Z" fill="#f2f1d3"/><path d="M28.37,4.88s-1.15-.57-1.3-1.5-1-.54-.9.28,1.6,1.4,2.16,1.37C28.33,5,28.51,5,28.37,4.88Z" fill="#c9c4a9"/><path d="M32.11,4.82a3.33,3.33,0,0,0,1.28-.92c.28-.49,0-.91.6-1s.67.87-.15,1.64S31.88,4.93,32.11,4.82Z" fill="#c9c4a9"/><polygon points="13.77 29.48 14.96 29.48 15.85 30.33 14.15 30.33 13.77 29.48" fill="#38332f"/><polygon points="15.94 29.48 16.48 30.33 18.13 30.33 17.21 29.48 15.94 29.48" fill="#38332f"/><path d="M24.81,29.4h1.34l.9.93H25.39A3.12,3.12,0,0,1,24.81,29.4Z" fill="#38332f"/><path d="M27.16,29.28h1.25l.9,1H27.62S27.26,29.58,27.16,29.28Z" fill="#38332f"/><path d="M29.1,6.56a.27.27,0,1,1-.27-.27A.27.27,0,0,1,29.1,6.56Z" fill="#38332f"/><path d="M31.94,6.56a.28.28,0,0,1-.27.27.27.27,0,0,1,0-.54A.28.28,0,0,1,31.94,6.56Z" fill="#38332f"/><path d="M29.46,6.94a1.89,1.89,0,0,0-.71.75c-.17.43.39,1.19,1.55,1.12s2.12-1.06.64-1.91Z" fill="#c9c4a9"/><path d="M31,6.92l0,0h-.22a.81.81,0,0,1,.52.81.32.32,0,0,1-.35.26.46.46,0,0,1-.34-.14.91.91,0,0,1-.19-.55h-.12c-.1.63-.45.66-.6.65s-.41-.19-.41-.34A.74.74,0,0,1,29.59,7l-.05-.1h0a.85.85,0,0,0-.41.65.53.53,0,0,0,.43.44.67.67,0,0,0,.15.44.72.72,0,0,0,.56.22.62.62,0,0,0,.54-.22.58.58,0,0,0,.12-.37h0a.44.44,0,0,0,.47-.35A.84.84,0,0,0,31,6.92ZM30.69,8.4a.52.52,0,0,1-.44.17.58.58,0,0,1-.47-.18.67.67,0,0,1-.12-.34A.58.58,0,0,0,29.93,8a1.31,1.31,0,0,0,.63,0,.5.5,0,0,0,.23.09A.46.46,0,0,1,30.69,8.4Z" fill="#38332f"/><path d="M29.71,6.61s-.34,0-.35.19a.94.94,0,0,0,.95.67c.57,0,1.31-.83.45-.86S29.71,6.61,29.71,6.61Z" fill="#38332f"/><path d="M44.56,8.62l-7.74,8s3.42,0,4.46,0c.08,5.79-5.89,6.57-5.89,6.57S48,24.85,47.84,16.57c1.16,0,4.46,0,4.46,0Z" fill="#94b500" stroke="#94b500" stroke-linecap="round" stroke-linejoin="round"/></g></svg>