<svg xmlns="http://www.w3.org/2000/svg" viewBox="0 0 32 32"><title>loopBox</title><g id="Layer_2" data-name="Layer 2"><rect width="32" height="32" rx="6" ry="6" fill="#94b500"/><rect width="32" height="32" fill="none"/></g><g id="Layer_5" data-name="Layer 5"><path d="M15.89,17.75c-2,2-4.16,4.28-7.4,4.28a5.63,5.63,0,0,1-5.76-5.92,6,6,0,0,1,6.08-5.92c3,0,5.16,2.36,7.08,4.28,2-2,4.16-4.28,7.4-4.28a5.61,5.61,0,0,1,5.76,5.92A6,6,0,0,1,23,22C20,22,17.81,19.67,15.89,17.75Zm-1.6-1.64c-1.56-1.44-3.2-3.52-5.52-3.52a3.52,3.52,0,0,0-3.52,3.52,3.35,3.35,0,0,0,3.4,3.52C10.93,19.63,12.77,17.67,14.29,16.11Zm12.24,0a3.35,3.35,0,0,0-3.4-3.52c-2.28,0-4.12,2-5.64,3.52,1.56,1.44,3.2,3.52,5.52,3.52A3.52,3.52,0,0,0,26.53,16.11Z" fill="#424242"/></g></svg>