<svg id="Layer_2" data-name="Layer 2" xmlns="http://www.w3.org/2000/svg" xmlns:xlink="http://www.w3.org/1999/xlink" viewBox="0 0 32 32"><defs><clipPath id="clip-path"><rect x="16" y="-15.78" width="40.89" height="68.22" style="fill:none"/></clipPath><clipPath id="clip-path-2"><circle cx="15.97" cy="16.06" r="14.12" style="fill:none"/></clipPath></defs><rect y="0.06" width="32" height="32" rx="6" style="fill:#3d7ca6"/><g style="clip-path:url(#clip-path)"><circle cx="16" cy="16" r="13.98" style="fill:#a82323"/><path d="M27.31,13.13a14,14,0,0,1-14,14C5.61,27.11,2,23.58,2,15.25c0-8.09,7.63-12.86,12.37-13.13C22.74,1.64,27.31,5.41,27.31,13.13Z" style="fill:#e03c34"/></g><g style="clip-path:url(#clip-path-2)"><rect x="13.9" y="-1.05" width="2.06" height="1.91" style="fill:#cecece"/><rect x="11.84" y="-1.05" width="2.06" height="1.91" style="fill:#5b5b5b"/><rect x="9.78" y="-1.05" width="2.06" height="1.91" style="fill:#cecece"/><rect x="7.72" y="-1.05" width="2.06" height="1.91" style="fill:#5b5b5b"/><rect x="5.65" y="-1.05" width="2.06" height="1.91" style="fill:#cecece"/><rect x="3.59" y="-1.05" width="2.06" height="1.91" style="fill:#5b5b5b"/><rect x="1.53" y="-1.05" width="2.06" height="1.91" style="fill:#cecece"/><rect x="11.84" y="0.87" width="2.06" height="1.91" style="fill:#cecece"/><rect x="9.78" y="0.87" width="2.06" height="1.91" style="fill:#5b5b5b"/><rect x="7.72" y="0.87" width="2.06" height="1.91" style="fill:#cecece"/><rect x="5.65" y="0.87" width="2.06" height="1.91" style="fill:#5b5b5b"/><rect x="3.59" y="0.87" width="2.06" height="1.91" style="fill:#cecece"/><rect x="1.53" y="0.87" width="2.06" height="1.91" style="fill:#5b5b5b"/><rect x="13.88" y="0.87" width="2.06" height="1.91" style="fill:#5b5b5b"/><rect x="13.9" y="2.78" width="2.06" height="1.91" style="fill:#cecece"/><rect x="11.84" y="2.78" width="2.06" height="1.91" style="fill:#5b5b5b"/><rect x="9.78" y="2.78" width="2.06" height="1.91" style="fill:#cecece"/><rect x="7.72" y="2.78" width="2.06" height="1.91" style="fill:#5b5b5b"/><rect x="5.65" y="2.78" width="2.06" height="1.91" style="fill:#cecece"/><rect x="3.59" y="2.78" width="2.06" height="1.91" style="fill:#5b5b5b"/><rect x="1.53" y="2.78" width="2.06" height="1.91" style="fill:#cecece"/><rect x="11.84" y="4.69" width="2.06" height="1.91" style="fill:#cecece"/><rect x="9.78" y="4.69" width="2.06" height="1.91" style="fill:#5b5b5b"/><rect x="7.72" y="4.69" width="2.06" height="1.91" style="fill:#cecece"/><rect x="5.65" y="4.69" width="2.06" height="1.91" style="fill:#5b5b5b"/><rect x="3.59" y="4.69" width="2.06" height="1.91" style="fill:#cecece"/><rect x="1.53" y="4.69" width="2.06" height="1.91" style="fill:#5b5b5b"/><rect x="13.88" y="4.69" width="2.06" height="1.91" style="fill:#5b5b5b"/><rect x="13.9" y="6.6" width="2.06" height="1.91" style="fill:#cecece"/><rect x="11.84" y="6.6" width="2.06" height="1.91" style="fill:#5b5b5b"/><rect x="9.78" y="6.6" width="2.06" height="1.91" style="fill:#cecece"/><rect x="7.72" y="6.6" width="2.06" height="1.91" style="fill:#5b5b5b"/><rect x="5.65" y="6.6" width="2.06" height="1.91" style="fill:#cecece"/><rect x="3.59" y="6.6" width="2.06" height="1.91" style="fill:#5b5b5b"/><rect x="1.53" y="6.6" width="2.06" height="1.91" style="fill:#cecece"/><rect x="11.84" y="8.52" width="2.06" height="1.91" style="fill:#cecece"/><rect x="9.78" y="8.52" width="2.06" height="1.91" style="fill:#5b5b5b"/><rect x="7.72" y="8.52" width="2.06" height="1.91" style="fill:#cecece"/><rect x="5.65" y="8.52" width="2.06" height="1.91" style="fill:#5b5b5b"/><rect x="3.59" y="8.52" width="2.06" height="1.91" style="fill:#cecece"/><rect x="1.53" y="8.52" width="2.06" height="1.91" style="fill:#5b5b5b"/><rect x="13.88" y="8.52" width="2.06" height="1.91" style="fill:#5b5b5b"/><rect x="13.9" y="10.43" width="2.06" height="1.91" style="fill:#cecece"/><rect x="11.84" y="10.43" width="2.06" height="1.91" style="fill:#5b5b5b"/><rect x="9.78" y="10.43" width="2.06" height="1.91" style="fill:#cecece"/><rect x="7.72" y="10.43" width="2.06" height="1.91" style="fill:#5b5b5b"/><rect x="5.65" y="10.43" width="2.06" height="1.91" style="fill:#cecece"/><rect x="3.59" y="10.43" width="2.06" height="1.91" style="fill:#5b5b5b"/><rect x="1.53" y="10.43" width="2.06" height="1.91" style="fill:#cecece"/><rect x="11.84" y="12.34" width="2.06" height="1.91" style="fill:#cecece"/><rect x="9.78" y="12.34" width="2.06" height="1.91" style="fill:#5b5b5b"/><rect x="7.72" y="12.34" width="2.06" height="1.91" style="fill:#cecece"/><rect x="5.65" y="12.34" width="2.06" height="1.91" style="fill:#5b5b5b"/><rect x="3.59" y="12.34" width="2.06" height="1.91" style="fill:#cecece"/><rect x="1.53" y="12.34" width="2.06" height="1.91" style="fill:#5b5b5b"/><rect x="13.88" y="12.34" width="2.06" height="1.91" style="fill:#5b5b5b"/><rect x="13.9" y="14.26" width="2.06" height="1.91" style="fill:#cecece"/><rect x="11.84" y="14.26" width="2.06" height="1.91" style="fill:#5b5b5b"/><rect x="9.78" y="14.26" width="2.06" height="1.91" style="fill:#cecece"/><rect x="7.72" y="14.26" width="2.06" height="1.91" style="fill:#5b5b5b"/><rect x="5.65" y="14.26" width="2.06" height="1.91" style="fill:#cecece"/><rect x="3.59" y="14.26" width="2.06" height="1.91" style="fill:#5b5b5b"/><rect x="1.53" y="14.26" width="2.06" height="1.91" style="fill:#cecece"/><rect x="11.84" y="16.17" width="2.06" height="1.91" style="fill:#cecece"/><rect x="9.78" y="16.17" width="2.06" height="1.91" style="fill:#5b5b5b"/><rect x="7.72" y="16.17" width="2.06" height="1.91" style="fill:#cecece"/><rect x="5.65" y="16.17" width="2.06" height="1.91" style="fill:#5b5b5b"/><rect x="3.59" y="16.17" width="2.06" height="1.91" style="fill:#cecece"/><rect x="1.53" y="16.17" width="2.06" height="1.91" style="fill:#5b5b5b"/><rect x="13.88" y="16.17" width="2.06" height="1.91" style="fill:#5b5b5b"/><rect x="13.9" y="18.08" width="2.06" height="1.91" style="fill:#cecece"/><rect x="11.84" y="18.08" width="2.06" height="1.91" style="fill:#5b5b5b"/><rect x="9.78" y="18.08" width="2.06" height="1.91" style="fill:#cecece"/><rect x="7.72" y="18.08" width="2.06" height="1.91" style="fill:#5b5b5b"/><rect x="5.65" y="18.08" width="2.06" height="1.91" style="fill:#cecece"/><rect x="3.59" y="18.08" width="2.06" height="1.91" style="fill:#5b5b5b"/><rect x="1.53" y="18.08" width="2.06" height="1.91" style="fill:#cecece"/><rect x="11.84" y="19.99" width="2.06" height="1.91" style="fill:#cecece"/><rect x="9.78" y="19.99" width="2.06" height="1.91" style="fill:#5b5b5b"/><rect x="7.72" y="19.99" width="2.06" height="1.91" style="fill:#cecece"/><rect x="5.65" y="19.99" width="2.06" height="1.91" style="fill:#5b5b5b"/><rect x="3.59" y="19.99" width="2.06" height="1.91" style="fill:#cecece"/><rect x="1.53" y="19.99" width="2.06" height="1.91" style="fill:#5b5b5b"/><rect x="13.88" y="19.99" width="2.06" height="1.91" style="fill:#5b5b5b"/><rect x="13.9" y="21.91" width="2.06" height="1.91" style="fill:#cecece"/><rect x="11.84" y="21.91" width="2.06" height="1.91" style="fill:#5b5b5b"/><rect x="9.78" y="21.91" width="2.06" height="1.91" style="fill:#cecece"/><rect x="7.72" y="21.91" width="2.06" height="1.91" style="fill:#5b5b5b"/><rect x="5.65" y="21.91" width="2.06" height="1.91" style="fill:#cecece"/><rect x="3.59" y="21.91" width="2.06" height="1.91" style="fill:#5b5b5b"/><rect x="1.53" y="21.91" width="2.06" height="1.91" style="fill:#cecece"/><rect x="11.84" y="23.82" width="2.06" height="1.91" style="fill:#cecece"/><rect x="9.78" y="23.82" width="2.06" height="1.91" style="fill:#5b5b5b"/><rect x="7.72" y="23.82" width="2.06" height="1.91" style="fill:#cecece"/><rect x="5.65" y="23.82" width="2.06" height="1.91" style="fill:#5b5b5b"/><rect x="3.59" y="23.82" width="2.06" height="1.91" style="fill:#cecece"/><rect x="1.53" y="23.82" width="2.06" height="1.91" style="fill:#5b5b5b"/><rect x="13.88" y="23.82" width="2.06" height="1.91" style="fill:#5b5b5b"/><rect x="13.9" y="25.73" width="2.06" height="1.91" style="fill:#cecece"/><rect x="11.84" y="25.73" width="2.06" height="1.91" style="fill:#5b5b5b"/><rect x="9.78" y="25.73" width="2.06" height="1.91" style="fill:#cecece"/><rect x="7.72" y="25.73" width="2.06" height="1.91" style="fill:#5b5b5b"/><rect x="5.65" y="25.73" width="2.06" height="1.91" style="fill:#cecece"/><rect x="3.59" y="25.73" width="2.06" height="1.91" style="fill:#5b5b5b"/><rect x="1.53" y="25.73" width="2.06" height="1.91" style="fill:#cecece"/><rect x="11.84" y="27.64" width="2.06" height="1.91" style="fill:#cecece"/><rect x="9.78" y="27.64" width="2.06" height="1.91" style="fill:#5b5b5b"/><rect x="7.72" y="27.64" width="2.06" height="1.91" style="fill:#cecece"/><rect x="5.65" y="27.64" width="2.06" height="1.91" style="fill:#5b5b5b"/><rect x="3.59" y="27.64" width="2.06" height="1.91" style="fill:#cecece"/><rect x="1.53" y="27.64" width="2.06" height="1.91" style="fill:#5b5b5b"/><rect x="13.88" y="27.64" width="2.06" height="1.91" style="fill:#5b5b5b"/><rect x="13.9" y="29.56" width="2.06" height="1.91" style="fill:#cecece"/><rect x="11.84" y="29.56" width="2.06" height="1.91" style="fill:#5b5b5b"/><rect x="9.78" y="29.56" width="2.06" height="1.91" style="fill:#cecece"/><rect x="7.72" y="29.56" width="2.06" height="1.91" style="fill:#5b5b5b"/><rect x="5.65" y="29.56" width="2.06" height="1.91" style="fill:#cecece"/><rect x="3.59" y="29.56" width="2.06" height="1.91" style="fill:#5b5b5b"/><rect x="1.53" y="29.56" width="2.06" height="1.91" style="fill:#cecece"/><rect x="11.84" y="31.47" width="2.06" height="1.91" style="fill:#cecece"/><rect x="9.78" y="31.47" width="2.06" height="1.91" style="fill:#5b5b5b"/><rect x="7.72" y="31.47" width="2.06" height="1.91" style="fill:#cecece"/><rect x="5.65" y="31.47" width="2.06" height="1.91" style="fill:#5b5b5b"/><rect x="3.59" y="31.47" width="2.06" height="1.91" style="fill:#cecece"/><rect x="1.53" y="31.47" width="2.06" height="1.91" style="fill:#5b5b5b"/><rect x="13.88" y="31.47" width="2.06" height="1.91" style="fill:#5b5b5b"/></g></svg>