<svg xmlns="http://www.w3.org/2000/svg" xmlns:xlink="http://www.w3.org/1999/xlink" viewBox="0 0 32 32"><defs><clipPath id="clip-path"><rect x="16" y="-15.78" width="40.89" height="68.22" style="fill:none"/></clipPath></defs><g id="Layer_2" data-name="Layer 2"><rect y="0.06" width="32" height="32" rx="6" style="fill:#3d7ca6"/><g style="clip-path:url(#clip-path)"><circle cx="16" cy="16" r="13.98" style="fill:#a82323"/><path d="M27.31,13.13a14,14,0,0,1-14,14C5.61,27.11,2,23.58,2,15.25c0-8.09,7.63-12.86,12.37-13.13C22.74,1.64,27.31,5.41,27.31,13.13Z" style="fill:#e03c34"/></g></g><g id="Layer_10" data-name="Layer 10"><rect x="9.22" y="1.91" width="3.38" height="3.13" style="fill:#cecece"/><rect x="12.55" y="1.91" width="3.38" height="3.13" style="fill:#5b5b5b"/><rect x="12.59" y="5.04" width="3.38" height="3.13" style="fill:#cecece"/><rect x="9.22" y="5.04" width="3.38" height="3.13" style="fill:#5b5b5b"/><rect x="5.84" y="5.04" width="3.38" height="3.13" style="fill:#cecece"/><rect x="9.22" y="8.17" width="3.38" height="3.13" style="fill:#cecece"/><rect x="5.84" y="8.17" width="3.38" height="3.13" style="fill:#5b5b5b"/><rect x="2.47" y="8.17" width="3.38" height="3.13" style="fill:#cecece"/><rect x="12.55" y="8.17" width="3.38" height="3.13" style="fill:#5b5b5b"/><rect x="12.59" y="11.3" width="3.38" height="3.13" style="fill:#cecece"/><rect x="9.22" y="11.3" width="3.38" height="3.13" style="fill:#5b5b5b"/><rect x="5.84" y="11.3" width="3.38" height="3.13" style="fill:#cecece"/><rect x="2.47" y="11.3" width="3.38" height="3.13" style="fill:#5b5b5b"/><rect x="9.22" y="14.43" width="3.38" height="3.13" style="fill:#cecece"/><rect x="5.84" y="14.43" width="3.38" height="3.13" style="fill:#5b5b5b"/><rect x="2.47" y="14.43" width="3.38" height="3.13" style="fill:#cecece"/><rect x="12.55" y="14.43" width="3.38" height="3.13" style="fill:#5b5b5b"/><rect x="12.59" y="17.56" width="3.38" height="3.13" style="fill:#cecece"/><rect x="9.22" y="17.56" width="3.38" height="3.13" style="fill:#5b5b5b"/><rect x="5.84" y="17.56" width="3.38" height="3.13" style="fill:#cecece"/><rect x="2.47" y="17.56" width="3.38" height="3.13" style="fill:#5b5b5b"/><rect x="9.22" y="20.69" width="3.38" height="3.13" style="fill:#cecece"/><rect x="5.84" y="20.69" width="3.38" height="3.13" style="fill:#5b5b5b"/><rect x="2.47" y="20.69" width="3.38" height="3.13" style="fill:#cecece"/><rect x="12.55" y="20.69" width="3.38" height="3.13" style="fill:#5b5b5b"/><rect x="12.59" y="23.82" width="3.38" height="3.13" style="fill:#cecece"/><rect x="9.22" y="23.82" width="3.38" height="3.13" style="fill:#5b5b5b"/><rect x="5.84" y="23.82" width="3.38" height="3.13" style="fill:#cecece"/><rect x="9.22" y="26.95" width="3.38" height="3.13" style="fill:#cecece"/><rect x="12.55" y="26.95" width="3.38" height="3.13" style="fill:#5b5b5b"/><circle cx="15.97" cy="16.06" r="14.12" style="fill:none"/></g></svg>