<svg xmlns="http://www.w3.org/2000/svg" viewBox="0 0 32 32"><title>multiRef</title><g id="Layer_2" data-name="Layer 2"><rect width="32" height="32" rx="6" ry="6" fill="#94b500"/></g><g id="Layer_8" data-name="Layer 8"><rect x="6.28" y="6.28" width="19.44" height="19.44" transform="translate(-6.63 16) rotate(-45)" fill="#c8def3"/><polygon points="16 2.26 2.26 16 16 16 16 2.26" fill="none"/><polygon points="29.74 16 16 2.26 16 16 29.74 16" fill="#8bb2d5"/><polygon points="16 29.74 29.74 16 16 16 16 29.74" fill="#3f7eb0"/><polygon points="16 16 2.26 16 16 29.74 16 16" fill="#5d96bf"/><path d="M28.52,10.83l-2.8-1.76.1,3.34H23.37l.13-3.34-2.83,1.76-1.2-2.11,2.94-1.54L19.47,5.63l1.2-2.14L23.5,5.28l-.13-3.34h2.45l-.1,3.34,2.8-1.79,1.23,2.14-3,1.55,3,1.54Z" fill="#424242"/></g></svg>