<?xml version="1.0" encoding="utf-8"?>
<!-- Generator: Adobe Illustrator 22.1.0, SVG Export Plug-In . SVG Version: 6.00 Build 0)  -->
<svg version="1.1" id="Layer_1" xmlns="http://www.w3.org/2000/svg" xmlns:xlink="http://www.w3.org/1999/xlink" x="0px" y="0px"
	 viewBox="0 0 240 240" style="enable-background:new 0 0 240 240;" xml:space="preserve">
<style type="text/css">
	.st0{fill:#C8DEF3;}
	.st1{fill:none;}
	.st2{fill:#8BB2D5;}
	.st3{fill:#3F7EB0;}
	.st4{fill:#5D96BF;}
	.st5{fill:none;stroke:#1D1D1D;stroke-width:8;stroke-miterlimit:10;}
	.st6{fill:#FAFBFC;stroke:#000000;stroke-width:7;stroke-miterlimit:10;}
</style>
<rect x="47.2" y="47.2" transform="matrix(0.7071 -0.7071 0.7071 0.7071 -49.7045 119.9995)" class="st0" width="145.6" height="145.6"/>
<g>
	<polygon class="st1" points="120,17.1 17.1,120 120,120 	"/>
	<polygon class="st2" points="222.9,120 120,17.1 120,120 	"/>
	<polygon class="st3" points="120,222.9 222.9,120 120,120 	"/>
	<polygon class="st4" points="120,120 17.1,120 120,222.9 	"/>
</g>
<rect class="st1" width="240" height="240"/>
<rect x="47.2" y="47.2" transform="matrix(0.7071 -0.7071 0.7071 0.7071 -49.7045 119.9995)" class="st5" width="145.6" height="145.6"/>
<g>
	<path class="st6" d="M213.8,81.3l-21-13.2l0.8,25h-18.4l1-25L155,81.3l-9-15.8l22-11.6l-22-11.6l9-16l21.2,13.4l-1-25h18.4l-0.8,25
		l21-13.4l9.2,16l-22.2,11.6L223,65.5L213.8,81.3z"/>
</g>
</svg>
