<svg xmlns="http://www.w3.org/2000/svg" viewBox="0 0 32 32"><defs><style>.cls-1{fill:#94b500;}.cls-2{fill:#c8def3;}.cls-3{fill:none;}.cls-4{fill:#8bb2d5;}.cls-5{fill:#3f7eb0;}.cls-6{fill:#5d96bf;}.cls-7{fill:#424242;}</style></defs><title>multiRef</title><g id="Layer_2" data-name="Layer 2"><rect class="cls-1" width="32" height="32" rx="6" ry="6"/></g><g id="Layer_8" data-name="Layer 8"><rect class="cls-2" x="6.28" y="6.28" width="19.44" height="19.44" transform="translate(-6.63 16) rotate(-45)"/><polygon class="cls-3" points="16 2.26 2.26 16 16 16 16 2.26"/><polygon class="cls-4" points="29.74 16 16 2.26 16 16 29.74 16"/><polygon class="cls-5" points="16 29.74 29.74 16 16 16 16 29.74"/><polygon class="cls-6" points="16 16 2.26 16 16 29.74 16 16"/><path class="cls-7" d="M28.52,10.83l-2.8-1.76.1,3.34H23.37l.13-3.34-2.83,1.76-1.2-2.11,2.94-1.54L19.47,5.63l1.2-2.14L23.5,5.28l-.13-3.34h2.45l-.1,3.34,2.8-1.79,1.23,2.14-3,1.55,3,1.54Z"/></g></svg>