<?xml version="1.0" encoding="utf-8"?>
<!-- Generator: Adobe Illustrator 22.1.0, SVG Export Plug-In . SVG Version: 6.00 Build 0)  -->
<svg version="1.1" xmlns="http://www.w3.org/2000/svg" xmlns:xlink="http://www.w3.org/1999/xlink" x="0px" y="0px"
	 viewBox="0 0 32 32" style="enable-background:new 0 0 32 32;" xml:space="preserve">
<style type="text/css">
	.st0{fill:#94B500;}
	.st1{fill:none;}
	.st2{fill:#C9C9C9;}
	.st3{fill:#2D2D2D;}
	.st4{fill:none;stroke:#2D2D2D;stroke-width:2;stroke-miterlimit:10;}
	.st5{fill:none;stroke:#2D2D2D;stroke-miterlimit:10;}
	.st6{fill:#424242;}
	.st7{fill:#D8D8D8;}
	.st8{fill:#037ADD;}
	.st9{fill:#FCA306;}
	.st10{fill:#C8DEF3;}
	.st11{fill:#8BB2D5;}
	.st12{fill:#3F7EB0;}
	.st13{fill:#5D96BF;}
	.st14{fill:#7A8946;stroke:#424242;stroke-width:2;stroke-miterlimit:10;}
	.st15{fill:none;stroke:#FCA306;stroke-width:4;stroke-miterlimit:10;}
	.st16{fill:none;stroke:#FCA306;stroke-width:2;stroke-miterlimit:10;}
	.st17{fill:none;stroke:#FCA306;stroke-width:2;stroke-miterlimit:10;stroke-dasharray:8.153,1.3588;}
	.st18{fill:none;stroke:#FCA306;stroke-width:2;stroke-miterlimit:10;stroke-dasharray:8.1592,1.3599;}
	.st19{fill:none;stroke:#037ADD;stroke-width:2;stroke-miterlimit:10;}
	.st20{fill:url(#SVGID_1_);}
	.st21{enable-background:new    ;}
	.st22{fill:#21215E;stroke:#21215E;stroke-miterlimit:10;}
	.st23{fill:#F20000;stroke:#F20000;stroke-miterlimit:10;}
</style>
<g id="Layer_2">
	<path class="st0" d="M26,32H6c-3.3,0-6-2.7-6-6L0,6c0-3.3,2.7-6,6-6l20,0c3.3,0,6,2.7,6,6v20C32,29.3,29.3,32,26,32z"/>
</g>
<g id="Layer_10">
	<polyline class="st6" points="2.7,18.2 25.5,18.2 25.5,4.1 11.4,4.1 9,2.3 2.7,2.3 	"/>
	<polyline class="st8" points="4.7,24 27.4,24 27.4,9.9 13.3,9.9 10.9,8.1 4.7,8.1 	"/>
	<polyline class="st9" points="6.7,29.7 29.5,29.7 29.5,15.7 15.3,15.7 12.9,13.8 6.7,13.8 	"/>
</g>
<g id="Layer_8">
</g>
<g id="Layer_7">
</g>
<g id="Layer_4">
</g>
<g id="Layer_5">
</g>
<g id="Layer_6">
</g>
<g id="Layer_9">
</g>
</svg>
