<?xml version="1.0" encoding="utf-8"?>
<!-- Generator: Adobe Illustrator 22.1.0, SVG Export Plug-In . SVG Version: 6.00 Build 0)  -->
<svg version="1.1" id="Layer_1" xmlns="http://www.w3.org/2000/svg" xmlns:xlink="http://www.w3.org/1999/xlink" x="0px" y="0px"
	 viewBox="0 0 32 32" style="enable-background:new 0 0 32 32;" xml:space="preserve">
<style type="text/css">
	.st0{fill:none;}
	.st1{fill:#C9C9C9;}
	.st2{fill:#424242;}
	.st3{fill:none;stroke:#424242;stroke-width:2;stroke-miterlimit:10;}
	.st4{display:none;}
	.st5{display:inline;fill:url(#SVGID_1_);}
	.st6{display:inline;}
	.st7{fill:#94B500;}
</style>
<rect x="-3.1" y="-3.1" class="st0" width="38.2" height="38.2"/>
<g id="XMLID_90_">
	<rect x="-0.6" y="-0.6" class="st1" width="33.2" height="11.3"/>
</g>
<g id="XMLID_1_">
	<rect x="-0.6" y="11.1" class="st2" width="33.2" height="21.4"/>
</g>
<polygon class="st2" points="33,4.8 27.4,-0.7 21.5,-0.7 27.2,5 21.5,10.7 27.4,10.7 33,5.2 28.1,5 "/>
<polygon class="st2" points="16.7,5 21.6,4.8 16,-0.7 10.1,-0.7 15.8,5 10.1,10.7 16,10.7 21.6,5.2 "/>
<polygon class="st2" points="5.6,5 10.5,4.8 4.9,-0.7 -1,-0.7 4.7,5 -1,10.7 4.9,10.7 10.5,5.2 "/>
<line class="st3" x1="-0.6" y1="10.9" x2="33.1" y2="10.9"/>
<line class="st3" x1="-0.6" y1="5" x2="32.6" y2="5"/>
<g id="Layer_3">
	<polygon class="st7" points="10.6,12.1 25.5,21.1 10.6,30.2 	"/>
</g>
</svg>
