<svg xmlns="http://www.w3.org/2000/svg" viewBox="0 0 32 32"><defs><style>.cls-1,.cls-4,.cls-5{fill:none;}.cls-2{fill:#c9c9c9;}.cls-3{fill:#2d2d2d;}.cls-4,.cls-5{stroke:#2d2d2d;stroke-miterlimit:10;}.cls-4{stroke-width:2px;}.cls-6{fill:#d8d8d8;}.cls-7{fill:#94b500;}</style></defs><title>preFlightChecks</title><g id="Layer_2" data-name="Layer 2"><rect class="cls-1" y="0.32" width="32" height="31.68"/><g id="_Group_" data-name="&lt;Group&gt;"><rect class="cls-2" width="32" height="10.66"/></g><g id="_Group_2" data-name="&lt;Group&gt;"><rect class="cls-3" y="11.1" width="32" height="20.9"/></g><polygon class="cls-3" points="32 3.87 28.08 0 22.19 0 27.2 5 21.49 10.7 27.42 10.66 32 6.14 32 3.87"/><polygon class="cls-3" points="16.72 5 21.61 4.84 16.71 0 10.82 0 15.82 5 10.12 10.7 16.05 10.66 21.61 5.17 16.72 5"/><polygon class="cls-3" points="5.58 5 10.48 4.84 5.58 0 0 0 0 0.32 4.69 5 0 9.69 0 10.7 4.92 10.66 10.48 5.17 5.58 5"/><line class="cls-4" y1="10.88" x2="32" y2="10.88"/><line class="cls-5" y1="4.98" x2="32" y2="4.98"/><g id="_Group_3" data-name="&lt;Group&gt;"><rect class="cls-2" width="32" height="10.66"/></g><g id="_Group_4" data-name="&lt;Group&gt;"><rect class="cls-3" y="11.1" width="32" height="20.9"/></g><polygon class="cls-3" points="32 3.87 28.08 0 22.19 0 27.2 5 21.49 10.7 27.42 10.66 32 6.14 32 3.87"/><polygon class="cls-3" points="16.72 5 21.61 4.84 16.71 0 10.82 0 15.82 5 10.12 10.7 16.05 10.66 21.61 5.17 16.72 5"/><polygon class="cls-3" points="5.58 5 10.48 4.84 5.58 0 0 0 0 0.32 4.69 5 0 9.69 0 10.7 4.92 10.66 10.48 5.17 5.58 5"/><line class="cls-4" y1="10.88" x2="32" y2="10.88"/><line class="cls-5" y1="4.98" x2="32" y2="4.98"/></g><g id="Layer_17" data-name="Layer 17"><rect class="cls-6" x="11.22" y="18.67" width="9.57" height="9.57" rx="2.48" ry="2.48"/><path class="cls-7" d="M25.8,18c-5,3.53-9.84,9.85-9.84,9.85L9.51,21.42a1.14,1.14,0,0,1,0-1.58l1.66-1.76a1.09,1.09,0,0,1,1.57,0L16,21.29s5.71-5,11.19-7.11S34.87,11.69,25.8,18Z"/></g></svg>