<svg xmlns="http://www.w3.org/2000/svg" viewBox="0 0 32 32"><title>preFlightChecks</title><g id="Layer_2" data-name="Layer 2"><rect y="0.32" width="32" height="31.68" fill="none"/><g id="_Group_" data-name="&lt;Group&gt;"><rect width="32" height="10.66" fill="#c9c9c9"/></g><g id="_Group_2" data-name="&lt;Group&gt;"><rect y="11.1" width="32" height="20.9" fill="#2d2d2d"/></g><polygon points="32 3.87 28.08 0 22.19 0 27.2 5 21.49 10.7 27.42 10.66 32 6.14 32 3.87" fill="#2d2d2d"/><polygon points="16.72 5 21.61 4.84 16.71 0 10.82 0 15.82 5 10.12 10.7 16.05 10.66 21.61 5.17 16.72 5" fill="#2d2d2d"/><polygon points="5.58 5 10.48 4.84 5.58 0 0 0 0 0.32 4.69 5 0 9.69 0 10.7 4.92 10.66 10.48 5.17 5.58 5" fill="#2d2d2d"/><line y1="10.88" x2="32" y2="10.88" fill="none" stroke="#2d2d2d" stroke-miterlimit="10" stroke-width="2"/><line y1="4.98" x2="32" y2="4.98" fill="none" stroke="#2d2d2d" stroke-miterlimit="10"/><g id="_Group_3" data-name="&lt;Group&gt;"><rect width="32" height="10.66" fill="#c9c9c9"/></g><g id="_Group_4" data-name="&lt;Group&gt;"><rect y="11.1" width="32" height="20.9" fill="#2d2d2d"/></g><polygon points="32 3.87 28.08 0 22.19 0 27.2 5 21.49 10.7 27.42 10.66 32 6.14 32 3.87" fill="#2d2d2d"/><polygon points="16.72 5 21.61 4.84 16.71 0 10.82 0 15.82 5 10.12 10.7 16.05 10.66 21.61 5.17 16.72 5" fill="#2d2d2d"/><polygon points="5.58 5 10.48 4.84 5.58 0 0 0 0 0.32 4.69 5 0 9.69 0 10.7 4.92 10.66 10.48 5.17 5.58 5" fill="#2d2d2d"/><line y1="10.88" x2="32" y2="10.88" fill="none" stroke="#2d2d2d" stroke-miterlimit="10" stroke-width="2"/><line y1="4.98" x2="32" y2="4.98" fill="none" stroke="#2d2d2d" stroke-miterlimit="10"/></g><g id="Layer_17" data-name="Layer 17"><rect x="11.22" y="18.67" width="9.57" height="9.57" rx="2.48" ry="2.48" fill="#d8d8d8"/><path d="M23.47,14.48c-3.81,4.84-6.57,12.28-6.57,12.28l-8-4.3A1.14,1.14,0,0,1,8.38,21l1.08-2.17A1.1,1.1,0,0,1,11,18.31l4,2.15s4-6.46,8.64-10S30.31,5.79,23.47,14.48Z" fill="#94b500"/></g></svg>