<svg xmlns="http://www.w3.org/2000/svg" viewBox="0 0 32 32"><title>rivet</title><g id="Layer_2" data-name="Layer 2"><rect width="32" height="32" rx="6" ry="6" fill="#94b500"/></g><g id="Layer_16" data-name="Layer 16"><path d="M16,27.9A11.63,11.63,0,1,1,27.63,16.27,11.65,11.65,0,0,1,16,27.9Z" fill="#3d7ca6"/><path d="M16,5.64A10.63,10.63,0,1,1,5.37,16.27,10.63,10.63,0,0,1,16,5.64m0-2A12.63,12.63,0,1,0,28.63,16.27,12.64,12.64,0,0,0,16,3.64Z" fill="#75b4d8"/><circle cx="12.5" cy="20.12" r="2.39" fill="#94b500"/><circle cx="19.5" cy="20.12" r="2.39" fill="#94b500"/><circle cx="12.5" cy="13.13" r="2.39" fill="#94b500"/><circle cx="19.5" cy="13.13" r="2.39" fill="#94b500"/><rect x="11.05" y="15.59" width="9.89" height="1.94" rx="0.97" ry="0.97" transform="translate(16.4 -6.46) rotate(45)" fill="#fca306"/><rect x="11.05" y="15.87" width="9.89" height="1.94" rx="0.97" ry="0.97" transform="translate(39.22 17.43) rotate(135)" fill="#fca306"/></g></svg>