<svg xmlns="http://www.w3.org/2000/svg" viewBox="0 0 32 32"><title>RSAOV</title><g id="Layer_2" data-name="Layer 2"><polygon points="15.87 0.08 29.96 6.77 22.8 11.37 15.87 7.9 15.87 0.08" fill="#faa79c"/><polygon points="15.87 0.07 2.04 6.6 9.14 11.33 15.87 7.9 15.87 0.07" fill="#e88c8f"/><polygon points="29.96 6.77 29.96 23.29 15.87 15.81 29.96 6.77" fill="#ee615a"/><polygon points="2.04 6.6 2.04 23.29 15.87 15.81 2.04 6.6" fill="#ec5c59"/><polygon points="2.04 23.29 15.87 31.93 15.87 15.81 2.04 23.29" fill="#d84743"/><polygon points="15.87 15.81 29.96 23.29 15.87 31.93 15.87 15.81" fill="#cd3b3e"/><polygon points="2.04 14.95 15.8 22.99 29.96 14.95 15.87 7.9 2.04 14.95" fill="#ed2b33"/></g><g id="Layer_20" data-name="Layer 20"><rect x="6" y="11.14" width="19.75" height="7.61" fill="#d8d8d8" stroke="#424242" stroke-miterlimit="10"/><path d="M11.17,16.1H9.71l-.33,1.08h-1L10,12.28h1l1.57,4.9h-1Zm-1.23-.77H11l-.5-1.64h-.06Z"/><path d="M13.76,14.73a4.43,4.43,0,0,1,.12-1.07,2.33,2.33,0,0,1,.34-.8,1.65,1.65,0,0,1,.58-.5,1.86,1.86,0,0,1,.81-.17,1.76,1.76,0,0,1,.86.19,1.58,1.58,0,0,1,.57.52,2.49,2.49,0,0,1,.32.81,4.64,4.64,0,0,1,.1,1A3.29,3.29,0,0,1,17,16.61a1.56,1.56,0,0,1-1.39.67,1.79,1.79,0,0,1-.86-.19,1.58,1.58,0,0,1-.57-.52,2.37,2.37,0,0,1-.32-.81A5.37,5.37,0,0,1,13.76,14.73Zm1,0c0,.24,0,.46,0,.67a3.61,3.61,0,0,0,.12.54,1,1,0,0,0,.25.36.76.76,0,0,0,.44.13.83.83,0,0,0,.41-.1.73.73,0,0,0,.26-.31,1.79,1.79,0,0,0,.13-.53,5.72,5.72,0,0,0,0-.76c0-.22,0-.44,0-.65a2.71,2.71,0,0,0-.11-.54.88.88,0,0,0-.26-.36.69.69,0,0,0-.45-.14.65.65,0,0,0-.66.43A3.36,3.36,0,0,0,14.77,14.73Z"/><path d="M20.79,15.88h0l1-3.6h1l-1.47,4.9H20.23l-1.52-4.9h1.07Z"/></g></svg>