<svg xmlns="http://www.w3.org/2000/svg" viewBox="0 0 32 32"><title>RSCameraBokeh</title><g id="Layer_2" data-name="Layer 2"><polygon points="15.87 0.08 29.96 6.77 22.8 11.37 15.87 7.9 15.87 0.08" fill="#faa79c"/><polygon points="15.87 0.07 2.04 6.6 9.14 11.33 15.87 7.9 15.87 0.07" fill="#e88c8f"/><polygon points="29.96 6.77 29.96 23.29 15.87 15.81 29.96 6.77" fill="#ee615a"/><polygon points="2.04 6.6 2.04 23.29 15.87 15.81 2.04 6.6" fill="#ec5c59"/><polygon points="2.04 23.29 15.87 31.93 15.87 15.81 2.04 23.29" fill="#d84743"/><polygon points="15.87 15.81 29.96 23.29 15.87 31.93 15.87 15.81" fill="#cd3b3e"/><polygon points="2.04 14.95 15.8 22.99 29.96 14.95 15.87 7.9 2.04 14.95" fill="#ed2b33"/></g><g id="Layer_20" data-name="Layer 20"><path d="M22.8,21.52,17.73,24.4a3.6,3.6,0,0,1-3.59,0l-5-2.95A3.6,3.6,0,0,1,7.34,18.3l0-5.84A3.59,3.59,0,0,1,9.2,9.37l5.07-2.88a3.6,3.6,0,0,1,3.59,0l5,3a3.59,3.59,0,0,1,1.77,3.12l0,5.83A3.59,3.59,0,0,1,22.8,21.52Z" fill="#d8d8d8" stroke="#424242" stroke-miterlimit="10" stroke-width="2"/></g><g id="Layer_23" data-name="Layer 23"><path d="M10.67,12.45h6.49a.67.67,0,0,1,.67.67v1L22,12.45v5.6l-4.15-1.51v.85a.66.66,0,0,1-.67.66h-6.5a.67.67,0,0,1-.67-.67V13.12A.67.67,0,0,1,10.67,12.45Z" fill="#424242"/></g></svg>