<svg xmlns="http://www.w3.org/2000/svg" viewBox="0 0 32 32"><title>RSObjectId</title><g id="Layer_2" data-name="Layer 2"><polygon points="15.87 0.08 29.96 6.77 22.8 11.37 15.87 7.9 15.87 0.08" fill="#faa79c"/><polygon points="15.87 0.07 2.04 6.6 9.14 11.33 15.87 7.9 15.87 0.07" fill="#e88c8f"/><polygon points="29.96 6.77 29.96 23.29 15.87 15.81 29.96 6.77" fill="#ee615a"/><polygon points="2.04 6.6 2.04 23.29 15.87 15.81 2.04 6.6" fill="#ec5c59"/><polygon points="2.04 23.29 15.87 31.93 15.87 15.81 2.04 23.29" fill="#d84743"/><polygon points="15.87 15.81 29.96 23.29 15.87 31.93 15.87 15.81" fill="#cd3b3e"/><polygon points="2.04 14.95 15.8 22.99 29.96 14.95 15.87 7.9 2.04 14.95" fill="#ed2b33"/></g><g id="Layer_20" data-name="Layer 20"><rect x="3.81" y="11.14" width="8.04" height="7.61" fill="red" stroke="#424242" stroke-miterlimit="10"/><rect x="11.85" y="11.14" width="8.04" height="7.61" fill="lime" stroke="#424242" stroke-miterlimit="10"/><rect x="19.89" y="11.14" width="8.04" height="7.61" fill="blue" stroke="#424242" stroke-miterlimit="10"/></g></svg>