<svg xmlns="http://www.w3.org/2000/svg" viewBox="0 0 32 32"><title>RSTessellate</title><g id="Layer_2" data-name="Layer 2"><polygon points="15.87 0.08 29.96 6.77 22.8 11.37 15.87 7.9 15.87 0.08" fill="#faa79c"/><polygon points="15.87 0.07 2.04 6.6 9.14 11.33 15.87 7.9 15.87 0.07" fill="#e88c8f"/><polygon points="29.96 6.77 29.96 23.29 15.87 15.81 29.96 6.77" fill="#ee615a"/><polygon points="2.04 6.6 2.04 23.29 15.87 15.81 2.04 6.6" fill="#ec5c59"/><polygon points="2.04 23.29 15.87 31.93 15.87 15.81 2.04 23.29" fill="#d84743"/><polygon points="15.87 15.81 29.96 23.29 15.87 31.93 15.87 15.81" fill="#cd3b3e"/><polygon points="2.04 14.95 15.8 22.99 29.96 14.95 15.87 7.9 2.04 14.95" fill="#ed2b33"/></g><g id="Layer_20" data-name="Layer 20"><circle cx="16" cy="15.25" r="8.92" fill="#d8d8d8" stroke="#424242" stroke-miterlimit="10" stroke-width="0.5"/><path d="M20.91,10.5a14.16,14.16,0,0,1,0,9.4,10.41,10.41,0,0,1-9.82,0,12.29,12.29,0,0,1,0-9.4A11,11,0,0,1,20.91,10.5Z" fill="none" stroke="#424242" stroke-miterlimit="10" stroke-width="0.5"/><line x1="20.91" y1="10.5" x2="22.62" y2="9.27" fill="none" stroke="#424242" stroke-miterlimit="10" stroke-width="0.5"/><line x1="11.09" y1="10.5" x2="9.49" y2="9.27" fill="none" stroke="#424242" stroke-miterlimit="10" stroke-width="0.5"/><line x1="11.09" y1="19.9" x2="9.49" y2="21.22" fill="none" stroke="#424242" stroke-miterlimit="10" stroke-width="0.5"/><line x1="20.91" y1="19.9" x2="22.62" y2="21.22" fill="none" stroke="#424242" stroke-miterlimit="10" stroke-width="0.5"/></g></svg>