<svg xmlns="http://www.w3.org/2000/svg" viewBox="0 0 32 32"><title>save</title><g id="Layer_2" data-name="Layer 2"><path d="M6.41,31,1,25.59V6A5,5,0,0,1,6,1H26a5,5,0,0,1,5,5V26a5,5,0,0,1-5,5Z" style="fill:#d8d8d8"/><path d="M26,2a4,4,0,0,1,4,4V26a4,4,0,0,1-4,4H6.83L2,25.17V6A4,4,0,0,1,6,2H26m0-2H6A6,6,0,0,0,0,6V26l6,6H26a6,6,0,0,0,6-6V6a6,6,0,0,0-6-6Z" style="fill:#424242"/></g><g id="Layer_24" data-name="Layer 24"><polyline points="6.92 0.45 6.92 15.08 25 14.83 25 0" style="fill:none;stroke:#424242;stroke-miterlimit:10;stroke-width:2px"/><rect x="9.82" y="19.94" width="12.17" height="7.96" style="fill:#424242"/><rect x="11.9" y="21.88" width="2.04" height="4.04" style="fill:#d8d8d8"/></g></svg>