<svg xmlns="http://www.w3.org/2000/svg" viewBox="0 0 32 32"><title>selectSmooths</title><g id="Layer_2" data-name="Layer 2"><rect x="1" y="1" width="30" height="30" rx="5" ry="5" fill="#94b500"/><path d="M26,2a4,4,0,0,1,4,4V26a4,4,0,0,1-4,4H6a4,4,0,0,1-4-4V6A4,4,0,0,1,6,2H26m0-2H6A6,6,0,0,0,0,6V26a6,6,0,0,0,6,6H26a6,6,0,0,0,6-6V6a6,6,0,0,0-6-6Z" fill="#3d7ca6"/></g><g id="Layer_13" data-name="Layer 13"><rect x="4.13" y="11.96" width="15.83" height="15.92" fill="#d8d8d8" stroke="#424242" stroke-miterlimit="10"/><rect x="12.04" y="4" width="15.83" height="15.92" fill="#fca306" stroke="#424242" stroke-miterlimit="10"/><polyline points="4.13 19.92 12.04 19.92 12.04 27.88" fill="none" stroke="#424242" stroke-miterlimit="10"/><line x1="12.04" y1="11.96" x2="27.88" y2="11.96" fill="none" stroke="#424242" stroke-miterlimit="10"/><line x1="19.96" y1="19.92" x2="19.96" y2="4" fill="none" stroke="#424242" stroke-miterlimit="10"/><line x1="12.04" y1="7.94" x2="27.88" y2="7.94" fill="none" stroke="#424242" stroke-miterlimit="10"/><line x1="12.04" y1="16" x2="27.88" y2="16" fill="none" stroke="#424242" stroke-miterlimit="10"/><line x1="16" y1="19.92" x2="16" y2="4" fill="none" stroke="#424242" stroke-miterlimit="10"/><line x1="24" y1="4" x2="24" y2="19.92" fill="none" stroke="#424242" stroke-miterlimit="10"/></g></svg>