<svg xmlns="http://www.w3.org/2000/svg" viewBox="0 0 32 32"><defs><style>.cls-1{fill:#94b500;}.cls-2{fill:#037add;}.cls-3{fill:#424242;}</style></defs><title>selectClear</title><g id="Layer_2" data-name="Layer 2"><rect class="cls-1" x="1" y="1" width="30" height="30" rx="5" ry="5"/><path class="cls-2" d="M26,2a4,4,0,0,1,4,4V26a4,4,0,0,1-4,4H6a4,4,0,0,1-4-4V6A4,4,0,0,1,6,2H26m0-2H6A6,6,0,0,0,0,6V26a6,6,0,0,0,6,6H26a6,6,0,0,0,6-6V6a6,6,0,0,0-6-6Z"/></g><g id="Layer_12" data-name="Layer 12"><path class="cls-3" d="M4.53,15.64H9.4v1.65H4.53Z"/><path class="cls-3" d="M17.36,19.62a4.39,4.39,0,0,1-1.26,1,3.55,3.55,0,0,1-1.69.42,3.68,3.68,0,0,1-2.55-1,4.11,4.11,0,0,1-1.17-3.2,4.19,4.19,0,0,1,1.17-3.24,3.63,3.63,0,0,1,2.55-1,3.79,3.79,0,0,1,1.69.4,4.29,4.29,0,0,1,1.26,1l-1.21,1.09a2.06,2.06,0,0,0-1.67-.86c-1.4,0-2.12.83-2.14,2.56s.74,2.56,2.14,2.54a2.06,2.06,0,0,0,1.67-.86Z"/><path class="cls-3" d="M18.51,9.43h1.65v9.4c0,.38.21.57.62.57h.57V21h-.74a2.35,2.35,0,0,1-1.48-.45A1.77,1.77,0,0,1,18.51,19Z"/></g></svg>