<svg xmlns="http://www.w3.org/2000/svg" viewBox="0 0 32 32"><defs><style>.cls-1{fill:#94b500;}.cls-2{fill:#3d7ca6;}.cls-3{fill:#d8d8d8;}.cls-3,.cls-4,.cls-5{stroke:#424242;stroke-miterlimit:10;}.cls-4{fill:#fca306;}.cls-5{fill:none;}</style></defs><title>icons</title><g id="Layer_2" data-name="Layer 2"><rect class="cls-1" x="1" y="1" width="30" height="30" rx="5" ry="5"/><path class="cls-2" d="M26,2a4,4,0,0,1,4,4V26a4,4,0,0,1-4,4H6a4,4,0,0,1-4-4V6A4,4,0,0,1,6,2H26m0-2H6A6,6,0,0,0,0,6V26a6,6,0,0,0,6,6H26a6,6,0,0,0,6-6V6a6,6,0,0,0-6-6Z"/></g><g id="Layer_13" data-name="Layer 13"><rect class="cls-3" x="4.13" y="11.96" width="15.83" height="15.92"/><rect class="cls-4" x="12.04" y="4" width="15.83" height="15.92"/><polyline class="cls-5" points="4.13 19.92 12.04 19.92 12.04 27.88"/><line class="cls-5" x1="12.04" y1="11.96" x2="27.88" y2="11.96"/><line class="cls-5" x1="19.96" y1="19.92" x2="19.96" y2="4"/><line class="cls-5" x1="12.04" y1="7.94" x2="27.88" y2="7.94"/><line class="cls-5" x1="12.04" y1="16" x2="27.88" y2="16"/><line class="cls-5" x1="16" y1="19.92" x2="16" y2="4"/><line class="cls-5" x1="24" y1="4" x2="24" y2="19.92"/></g></svg>