<svg xmlns="http://www.w3.org/2000/svg" viewBox="0 0 32 32"><title>selectList</title><g id="Layer_2" data-name="Layer 2"><rect x="1" y="1" width="30" height="30" rx="5" ry="5" fill="#94b500"/><path d="M26,2a4,4,0,0,1,4,4V26a4,4,0,0,1-4,4H6a4,4,0,0,1-4-4V6A4,4,0,0,1,6,2H26m0-2H6A6,6,0,0,0,0,6V26a6,6,0,0,0,6,6H26a6,6,0,0,0,6-6V6a6,6,0,0,0-6-6Z" fill="#3d7ca6"/></g><g id="Layer_12" data-name="Layer 12"><path d="M4.53,15.64H9.4v1.65H4.53Z" fill="#424242"/><path d="M11.32,9.43H13v9.4c0,.38.21.57.62.57h.57V21h-.74a2.35,2.35,0,0,1-1.48-.45A1.79,1.79,0,0,1,11.32,19Z" fill="#424242"/><path d="M18.33,19.5a2.16,2.16,0,0,0,1.17-.28.85.85,0,0,0,.45-.77.68.68,0,0,0-.27-.62,1.44,1.44,0,0,0-.74-.2l-1.45-.12a2.85,2.85,0,0,1-1.69-.7,2.13,2.13,0,0,1-.68-1.64,2.2,2.2,0,0,1,.9-1.89,3.48,3.48,0,0,1,2.16-.64,7.66,7.66,0,0,1,1,.07,5.27,5.27,0,0,1,.85.23,4.6,4.6,0,0,1,1.36.83l-1,1.19a5.2,5.2,0,0,0-1-.56,3.45,3.45,0,0,0-1.21-.2,1.61,1.61,0,0,0-1.08.28.87.87,0,0,0-.32.71.57.57,0,0,0,.24.48,1.44,1.44,0,0,0,.84.29l1.36.11a2.55,2.55,0,0,1,1.85.77,2.65,2.65,0,0,1,.53,1.69,2.15,2.15,0,0,1-1,1.84,4.25,4.25,0,0,1-2.43.68,5.2,5.2,0,0,1-3.61-1.47l1.15-1.13A3.42,3.42,0,0,0,18.33,19.5Z" fill="#424242"/></g></svg>