<svg xmlns="http://www.w3.org/2000/svg" xmlns:xlink="http://www.w3.org/1999/xlink" viewBox="0 0 32 32"><defs><radialGradient id="radial-gradient" cx="16.12" cy="-67.58" r="15.85" gradientTransform="matrix(1, 0, 0, -1, 0, -52)" gradientUnits="userSpaceOnUse"><stop offset="0" stop-color="#c7c7c7"/><stop offset="1" stop-color="#474747"/></radialGradient></defs><title>smedgeRender</title><g id="Layer_2" data-name="Layer 2"><rect y="0.32" width="32" height="31.68" fill="none"/><g id="_Group_" data-name="&lt;Group&gt;"><rect width="32" height="10.66" fill="#c9c9c9"/></g><g id="_Group_2" data-name="&lt;Group&gt;"><rect y="11.1" width="32" height="20.9" fill="#2d2d2d"/></g><polygon points="32 3.87 28.08 0 22.19 0 27.2 5 21.49 10.7 27.42 10.66 32 6.14 32 3.87" fill="#2d2d2d"/><polygon points="16.72 5 21.61 4.84 16.71 0 10.82 0 15.82 5 10.12 10.7 16.05 10.66 21.61 5.17 16.72 5" fill="#2d2d2d"/><polygon points="5.58 5 10.48 4.84 5.58 0 0 0 0 0.32 4.69 5 0 9.69 0 10.7 4.92 10.66 10.48 5.17 5.58 5" fill="#2d2d2d"/><line y1="10.88" x2="32" y2="10.88" fill="none" stroke="#2d2d2d" stroke-miterlimit="10" stroke-width="2"/><line y1="4.98" x2="32" y2="4.98" fill="none" stroke="#2d2d2d" stroke-miterlimit="10"/><g id="_Group_3" data-name="&lt;Group&gt;"><rect width="32" height="10.66" fill="#c9c9c9"/></g><g id="_Group_4" data-name="&lt;Group&gt;"><rect y="11.1" width="32" height="20.9" fill="#2d2d2d"/></g><polygon points="32 3.87 28.08 0 22.19 0 27.2 5 21.49 10.7 27.42 10.66 32 6.14 32 3.87" fill="#2d2d2d"/><polygon points="16.72 5 21.61 4.84 16.71 0 10.82 0 15.82 5 10.12 10.7 16.05 10.66 21.61 5.17 16.72 5" fill="#2d2d2d"/><polygon points="5.58 5 10.48 4.84 5.58 0 0 0 0 0.32 4.69 5 0 9.69 0 10.7 4.92 10.66 10.48 5.17 5.58 5" fill="#2d2d2d"/><line y1="10.88" x2="32" y2="10.88" fill="none" stroke="#2d2d2d" stroke-miterlimit="10" stroke-width="2"/><line y1="4.98" x2="32" y2="4.98" fill="none" stroke="#2d2d2d" stroke-miterlimit="10"/></g><g id="Layer_6" data-name="Layer 6"><circle cx="16.12" cy="21" r="9.38" fill="url(#radial-gradient)"/><g style="isolation:isolate"><path d="M18.76,24.61a1.49,1.49,0,0,0-.49-1.16A4.32,4.32,0,0,0,17,22.71q-.75-.32-1.59-.6a8.18,8.18,0,0,1-1.59-.71,3.9,3.9,0,0,1-1.23-1.12,3,3,0,0,1-.49-1.8A3,3,0,0,1,13.27,16a4.9,4.9,0,0,1,3.23-.94,12.71,12.71,0,0,1,2.22.18,5.61,5.61,0,0,1,1.59.47l-.56,1.52a5.69,5.69,0,0,0-1.35-.4,10.29,10.29,0,0,0-2-.18,2.8,2.8,0,0,0-1.85.52,1.51,1.51,0,0,0-.61,1.2,1.46,1.46,0,0,0,.48,1.13,5.17,5.17,0,0,0,1.23.76c.5.22,1,.43,1.6.64a8.94,8.94,0,0,1,1.59.76,4.37,4.37,0,0,1,1.23,1.11,2.8,2.8,0,0,1,.49,1.69A3.51,3.51,0,0,1,20.24,26a3.23,3.23,0,0,1-.94,1.17,4.22,4.22,0,0,1-1.48.75,6.68,6.68,0,0,1-2,.27,11.83,11.83,0,0,1-2.5-.23,7.39,7.39,0,0,1-1.55-.48l.6-1.57a7,7,0,0,0,1.37.45,7.86,7.86,0,0,0,2,.24A5.48,5.48,0,0,0,17,26.49a3.24,3.24,0,0,0,.95-.36,1.78,1.78,0,0,0,.63-.62A1.72,1.72,0,0,0,18.76,24.61Z" fill="#21215e" stroke="#21215e" stroke-miterlimit="10"/></g><g style="isolation:isolate"><path d="M18.76,23.41a1.51,1.51,0,0,0-.49-1.17A4.83,4.83,0,0,0,17,21.5c-.5-.21-1-.41-1.59-.59a8.2,8.2,0,0,1-1.59-.72,3.78,3.78,0,0,1-1.23-1.12,3,3,0,0,1-.49-1.79,3,3,0,0,1,1.13-2.48,4.9,4.9,0,0,1,3.23-.94,12.71,12.71,0,0,1,2.22.18,6,6,0,0,1,1.59.47L19.75,16a5.69,5.69,0,0,0-1.35-.4,10.29,10.29,0,0,0-2-.18,2.85,2.85,0,0,0-1.85.52,1.54,1.54,0,0,0-.61,1.2,1.43,1.43,0,0,0,.48,1.13,4.87,4.87,0,0,0,1.23.76c.5.23,1,.44,1.6.64a9.69,9.69,0,0,1,1.59.76,4.26,4.26,0,0,1,1.23,1.12,2.8,2.8,0,0,1,.49,1.69,3.47,3.47,0,0,1-.33,1.53A3.35,3.35,0,0,1,19.3,26a4.58,4.58,0,0,1-1.48.75,7,7,0,0,1-2,.26,11.89,11.89,0,0,1-2.5-.22,7.39,7.39,0,0,1-1.55-.48l.6-1.58a7.64,7.64,0,0,0,1.37.46,8.35,8.35,0,0,0,2,.23A5.48,5.48,0,0,0,17,25.28a2.76,2.76,0,0,0,.95-.36,1.76,1.76,0,0,0,.63-.61A1.72,1.72,0,0,0,18.76,23.41Z" fill="#f20000" stroke="#f20000" stroke-miterlimit="10"/></g></g></svg>