<svg xmlns="http://www.w3.org/2000/svg" xmlns:xlink="http://www.w3.org/1999/xlink" viewBox="0 0 32 32"><defs><style>.cls-1,.cls-4,.cls-5{fill:none;}.cls-2{fill:#c9c9c9;}.cls-3{fill:#2d2d2d;}.cls-4,.cls-5{stroke:#2d2d2d;}.cls-4,.cls-5,.cls-7,.cls-8{stroke-miterlimit:10;}.cls-4{stroke-width:2px;}.cls-6{fill:url(#radial-gradient);}.cls-7,.cls-8{isolation:isolate;font-size:18.09px;font-family:PTSans-Caption, PT Sans Caption;}.cls-7{fill:#21215e;stroke:#21215e;}.cls-8{fill:#f20000;stroke:#f20000;}</style><radialGradient id="radial-gradient" cx="16.12" cy="-67.58" r="15.85" gradientTransform="matrix(1, 0, 0, -1, 0, -52)" gradientUnits="userSpaceOnUse"><stop offset="0" stop-color="#c7c7c7"/><stop offset="1" stop-color="#474747"/></radialGradient></defs><title>smedgeRender</title><g id="Layer_2" data-name="Layer 2"><rect class="cls-1" y="0.32" width="32" height="31.68"/><g id="_Group_" data-name="&lt;Group&gt;"><rect class="cls-2" width="32" height="10.66"/></g><g id="_Group_2" data-name="&lt;Group&gt;"><rect class="cls-3" y="11.1" width="32" height="20.9"/></g><polygon class="cls-3" points="32 3.87 28.08 0 22.19 0 27.2 5 21.49 10.7 27.42 10.66 32 6.14 32 3.87"/><polygon class="cls-3" points="16.72 5 21.61 4.84 16.71 0 10.82 0 15.82 5 10.12 10.7 16.05 10.66 21.61 5.17 16.72 5"/><polygon class="cls-3" points="5.58 5 10.48 4.84 5.58 0 0 0 0 0.32 4.69 5 0 9.69 0 10.7 4.92 10.66 10.48 5.17 5.58 5"/><line class="cls-4" y1="10.88" x2="32" y2="10.88"/><line class="cls-5" y1="4.98" x2="32" y2="4.98"/><g id="_Group_3" data-name="&lt;Group&gt;"><rect class="cls-2" width="32" height="10.66"/></g><g id="_Group_4" data-name="&lt;Group&gt;"><rect class="cls-3" y="11.1" width="32" height="20.9"/></g><polygon class="cls-3" points="32 3.87 28.08 0 22.19 0 27.2 5 21.49 10.7 27.42 10.66 32 6.14 32 3.87"/><polygon class="cls-3" points="16.72 5 21.61 4.84 16.71 0 10.82 0 15.82 5 10.12 10.7 16.05 10.66 21.61 5.17 16.72 5"/><polygon class="cls-3" points="5.58 5 10.48 4.84 5.58 0 0 0 0 0.32 4.69 5 0 9.69 0 10.7 4.92 10.66 10.48 5.17 5.58 5"/><line class="cls-4" y1="10.88" x2="32" y2="10.88"/><line class="cls-5" y1="4.98" x2="32" y2="4.98"/></g><g id="Layer_6" data-name="Layer 6"><circle class="cls-6" cx="16.12" cy="21" r="9.38"/><text class="cls-7" transform="translate(10.93 27.96)">S</text><text class="cls-8" transform="translate(10.93 26.76)">S</text></g></svg>