<?xml version="1.0" encoding="utf-8"?>
<!-- Generator: Adobe Illustrator 22.1.0, SVG Export Plug-In . SVG Version: 6.00 Build 0)  -->
<svg version="1.1" xmlns="http://www.w3.org/2000/svg" xmlns:xlink="http://www.w3.org/1999/xlink" x="0px" y="0px"
	 viewBox="0 0 32 32" style="enable-background:new 0 0 32 32;" xml:space="preserve">
<style type="text/css">
	.st0{fill:none;}
	.st1{fill:#C9C9C9;}
	.st2{fill:#2D2D2D;}
	.st3{fill:none;stroke:#2D2D2D;stroke-width:2;stroke-miterlimit:10;}
	.st4{fill:none;stroke:#2D2D2D;stroke-miterlimit:10;}
	.st5{display:none;}
	.st6{display:inline;}
	.st7{fill:#94B500;}
	.st8{fill:url(#SVGID_1_);}
	.st9{fill:#21215E;stroke:#21215E;stroke-miterlimit:10;}
	.st10{font-family:'PTSans-Caption';}
	.st11{font-size:18.0867px;}
	.st12{fill:#F20000;stroke:#F20000;stroke-miterlimit:10;}
</style>
<g id="Layer_1">
	<rect y="0.3" class="st0" width="32" height="31.7"/>
	<g id="XMLID_90_">
		<rect class="st1" width="32" height="10.7"/>
	</g>
	<g id="XMLID_1_">
		<rect y="11.1" class="st2" width="32" height="20.9"/>
	</g>
	<polygon class="st2" points="32,3.9 28.1,0 22.2,0 27.2,5 21.5,10.7 27.4,10.7 32,6.1 	"/>
	<polygon class="st2" points="16.7,5 21.6,4.8 16.7,0 10.8,0 15.8,5 10.1,10.7 16,10.7 21.6,5.2 	"/>
	<polygon class="st2" points="5.6,5 10.5,4.8 5.6,0 0,0 0,0.3 4.7,5 0,9.7 0,10.7 4.9,10.7 10.5,5.2 	"/>
	<line class="st3" x1="0" y1="10.9" x2="32" y2="10.9"/>
	<line class="st4" x1="0" y1="5" x2="32" y2="5"/>
	<g id="XMLID_3_">
		<rect class="st1" width="32" height="10.7"/>
	</g>
	<g id="XMLID_2_">
		<rect y="11.1" class="st2" width="32" height="20.9"/>
	</g>
	<polygon class="st2" points="32,3.9 28.1,0 22.2,0 27.2,5 21.5,10.7 27.4,10.7 32,6.1 	"/>
	<polygon class="st2" points="16.7,5 21.6,4.8 16.7,0 10.8,0 15.8,5 10.1,10.7 16,10.7 21.6,5.2 	"/>
	<polygon class="st2" points="5.6,5 10.5,4.8 5.6,0 0,0 0,0.3 4.7,5 0,9.7 0,10.7 4.9,10.7 10.5,5.2 	"/>
	<line class="st3" x1="0" y1="10.9" x2="32" y2="10.9"/>
	<line class="st4" x1="0" y1="5" x2="32" y2="5"/>
</g>
<g id="Layer_3_1_" class="st5">
	<g id="Layer_3" class="st6">
		<polygon class="st7" points="10.6,12.1 25.5,21.1 10.6,30.2 		"/>
	</g>
</g>
<g id="Layer_2">
	
		<radialGradient id="SVGID_1_" cx="16.1199" cy="-189.5781" r="15.8544" gradientTransform="matrix(1 0 0 -1 0 -174)" gradientUnits="userSpaceOnUse">
		<stop  offset="0" style="stop-color:#C7C7C7"/>
		<stop  offset="1" style="stop-color:#474747"/>
	</radialGradient>
	<circle class="st8" cx="16.1" cy="21" r="9.4"/>
	<text transform="matrix(1 0 0 1 10.9253 27.9618)" class="st9 st10 st11">S</text>
	<text transform="matrix(1 0 0 1 10.9253 26.7567)" class="st12 st10 st11">S</text>
</g>
</svg>
