<svg xmlns="http://www.w3.org/2000/svg" viewBox="0 0 32 32"><defs><style>.cls-1{fill:#94b500;}.cls-2{fill:#424242;}.cls-3{fill:#d8d8d8;}</style></defs><title>removeNamespaces</title><g id="Layer_2" data-name="Layer 2"><rect class="cls-1" width="32" height="32" rx="6" ry="6"/></g><g id="Layer_10" data-name="Layer 10"><circle class="cls-2" cx="15.87" cy="14.94" r="2.84"/><circle class="cls-2" cx="15.87" cy="26.9" r="2.84"/><path class="cls-3" d="M24.55-1.54s-1,4.73-2.29,6.2-6.59,2.68-6.59,2.68S20.44,8.37,22,10s2.53,6.22,2.53,6.22,1.53-4.81,2.88-6.22,6-2.67,6-2.67-4.83-1.08-6.3-2.62S24.55-1.54,24.55-1.54Z"/><path class="cls-3" d="M7.94,4.1S7.14,7.86,6.11,9,.87,11.16.87,11.16s3.8.82,5.06,2.12,2,5,2,5,1.21-3.83,2.29-5S15,11.16,15,11.16s-3.84-.86-5-2.08S7.94,4.1,7.94,4.1Z"/><path class="cls-3" d="M20.39,16.55s-.63,3-1.44,3.91-4.16,1.69-4.16,1.69,3,.65,4,1.68,1.59,3.92,1.59,3.92,1-3,1.81-3.92S26,22.15,26,22.15s-3-.68-4-1.65S20.39,16.55,20.39,16.55Z"/></g></svg>