<svg xmlns="http://www.w3.org/2000/svg" viewBox="0 0 32 32"><defs><style>.cls-1{fill:#94b500;}.cls-2{fill:#037add;}.cls-3{font-size:16.19px;fill:#424242;font-family:DINAlternate-Bold, DIN Alternate;font-weight:700;}</style></defs><title>selectList</title><g id="Layer_2" data-name="Layer 2"><rect class="cls-1" x="1" y="1" width="30" height="30" rx="5" ry="5"/><path class="cls-2" d="M26,2a4,4,0,0,1,4,4V26a4,4,0,0,1-4,4H6a4,4,0,0,1-4-4V6A4,4,0,0,1,6,2H26m0-2H6A6,6,0,0,0,0,6V26a6,6,0,0,0,6,6H26a6,6,0,0,0,6-6V6a6,6,0,0,0-6-6Z"/></g><g id="Layer_12" data-name="Layer 12"><text class="cls-3" transform="translate(3.67 20.95)">-ls</text></g></svg>